<?xml version="1.0" encoding="UTF-8"?>
<svg id="Capa_2" data-name="Capa 2" xmlns="http://www.w3.org/2000/svg" viewBox="0 0 92.09 87.92">
  <defs>
    <style>
      .cls-1 {
        fill: #444;
        stroke-width: 0px;
      }
    </style>
  </defs>
  <g id="Capa_1-2" data-name="Capa 1">
    <g>
      <path class="cls-1" d="M53.74,6.29v1.47c0,10.25.02,20.51-.03,30.76,0,1.13.29,1.42,1.42,1.41,7.23-.05,14.47-.03,21.7-.02,3.01,0,4.83,1.79,4.84,4.81.02,6.85.02,13.7,0,20.55,0,.95.06,1.36,1.26,1.36,5.48-.01,9.12,3.73,9.14,9.21.01,2.73.01,5.46,0,8.19-.01,2.5-1.31,3.86-3.77,3.86-28.17,0-56.34,0-84.52,0-2.4,0-3.77-1.35-3.73-3.74.05-2.87-.28-5.75.22-8.6.83-4.71,4.83-8.46,9.61-8.87,1.29-.11.99-.88.99-1.58,0-14.66,0-29.32,0-43.98,0-4.48,1.01-5.87,5.29-7.33,1.49-.51,3.58-.62,4.29-1.66.77-1.12.24-3.13.27-4.75.02-1.15-.02-2.3.02-3.45.09-2.14,1.68-3.76,3.82-3.93,2.15-.18,4.04,1.12,4.54,3.13.42,1.65.19,3.34.18,5.01,0,1.05.25,1.2,1.22.87,6.81-2.33,13.64-4.59,20.45-6.94,1.25-.43,2.09-.28,3.04.66,3.78,3.74,7.61,7.43,11.46,11.09,1.52,1.44,2.23,3.12,2.21,5.22-.05,5.08-.02,10.16-.01,15.24,0,.99-.09,1.92-1.37,1.9-1.28-.02-1.31-.98-1.31-1.95.01-5.08,0-10.16.02-15.24,0-1.11-.25-2.07-1.07-2.86-3.3-3.19-6.6-6.38-10.2-9.86ZM51,44.26c-7.39,2.48-14.62,4.91-21.84,7.34-2.17.73-4.34,1.46-6.51,2.16-.82.26-1.58.12-1.84-.81-.25-.89.19-1.47,1.04-1.76.27-.09.54-.19.81-.28,9.13-3.07,18.26-6.14,27.4-9.18.73-.24.99-.56.96-1.31-.05-1.58-.06-3.16,0-4.74.04-1.01-.24-1.06-1.15-.75-4.69,1.62-9.4,3.16-14.11,4.74-4.3,1.44-8.59,2.87-12.88,4.34-.7.24-1.31.32-1.84-.27-.4-.44-.42-.99-.18-1.48.29-.62.94-.74,1.53-.94,7.86-2.64,15.73-5.29,23.58-7.95,1.66-.56,3.98-.58,4.77-1.89.79-1.31.15-3.44.26-5.21.09-1.32-.32-1.34-1.43-.97-8.85,3.01-17.72,5.95-26.57,8.95-.99.34-1.86.45-2.21-.7-.35-1.16.5-1.58,1.45-1.89,2.81-.92,5.61-1.87,8.41-2.81,6.42-2.16,12.84-4.31,19.26-6.48.49-.16,1.13-.14,1.1-1.02-.06-2.01-.02-4.02-.02-6.1-.46.11-.83.17-1.18.29-8.68,2.92-17.35,5.86-26.03,8.76-1.02.34-2.38,1.2-2.94-.41-.57-1.63,1-1.76,2.04-2.11,9.03-3.06,18.07-6.12,27.12-9.13.8-.26,1.04-.59,1.01-1.39-.06-1.53-.02-3.07-.02-4.6q0-1.72-1.56-1.19c-10.93,3.68-21.87,7.36-32.8,11.05-2.61.88-3.05,1.49-3.05,4.28,0,20.94,0,41.88,0,62.82,0,.24.03.48,0,.72-.09.71.22.91.9.89,1.72-.04,3.45-.06,5.17,0,.92.04,1.11-.29,1.1-1.14-.05-2.92-.04-5.85-.01-8.77.01-1.91.76-2.92,2.62-3.45,3.9-1.12,7.8-2.2,11.71-3.27,2.78-.76,4.34.45,4.34,3.36.01,4.03.03,8.05-.02,12.08-.01.92.21,1.22,1.17,1.2,3.02-.06,6.04-.08,9.06,0,1.14.03,1.41-.3,1.41-1.41-.05-9.49-.03-18.98-.03-28.46v-1.35c-.6.19-1.05.32-1.49.46-5.11,1.71-10.22,3.41-15.33,5.14-.99.33-1.97.58-2.35-.71-.34-1.16.55-1.53,1.49-1.84,5.56-1.86,11.11-3.77,16.68-5.61.77-.26,1.05-.57,1.02-1.39-.06-1.86-.02-3.73-.02-5.8ZM53.74,59.63c0,5.27.04,10.53-.03,15.8-.02,1.17.35,1.39,1.43,1.38,5.7-.05,11.4-.06,17.09,0,1.12.01,1.44-.27,1.42-1.41-.05-3.34,1.49-5.88,4.31-7.58.75-.45.93-.91.93-1.69-.02-7.09-.01-14.17-.02-21.26,0-1.82-.44-2.25-2.31-2.25-7.18,0-14.36.02-21.55-.03-1.14,0-1.32.37-1.31,1.39.05,5.22.02,10.44.02,15.66ZM63.71,79.58c-2.92,0-5.84.05-8.76-.03-1.04-.03-1.31.3-1.23,1.28.09,1.14.05,2.3.01,3.44-.02.64.12.94.86.94,6.03-.03,12.06-.03,18.09,0,.77,0,.99-.27.96-1-.05-1.15-.07-2.3,0-3.44.06-.92-.2-1.23-1.17-1.21-2.92.07-5.84.02-8.76.02ZM82.81,76.79c1.87,0,3.74-.04,5.6.02.84.03,1.03-.28,1.02-1.07-.02-3.69-2.69-6.43-6.4-6.49-3.85-.07-6.61,2.53-6.76,6.27-.04.96.15,1.36,1.22,1.3,1.77-.09,3.54-.03,5.32-.03ZM82.83,79.58c-1.86,0-3.73.03-5.59-.02-.75-.02-1,.21-.96.97.06,1.24.04,2.48,0,3.73-.02.62.09.97.84.96,3.73-.03,7.45-.02,11.18-.01.77,0,1.14-.34,1.12-1.13-.02-1.05-.07-2.11.01-3.15.09-1.03-.18-1.44-1.31-1.37-1.76.11-3.53.03-5.3.03ZM36.66,78.17c0-2.11-.01-4.21,0-6.32,0-.69-.14-.95-.91-.69-1.13.38-2.28.69-3.44.95-.78.17-.93.6-.92,1.32.04,2.58,0,5.17.02,7.75,0,1.28-.43,2.99.22,3.74.76.87,2.51.16,3.83.29.9.09,1.26-.17,1.22-1.16-.08-1.96-.02-3.92-.02-5.88ZM28.68,79.18c0-1.68-.02-3.35,0-5.03,0-.64-.07-1.02-.87-.77-1.23.38-2.47.71-3.72,1.04-.56.15-.75.5-.75,1.05,0,2.97.02,5.94,0,8.9,0,.61.18.86.81.84,1.15-.03,2.3-.07,3.45,0,.93.06,1.13-.31,1.1-1.16-.06-1.63-.02-3.25-.02-4.88ZM6.85,76.79c1.05,0,2.1-.03,3.15.01.68.03.92-.2.9-.9-.04-1.96-.04-3.92,0-5.88.01-.67-.25-.8-.85-.73-3.18.39-6.02,2.88-6.96,6.04-.31,1.04-.33,1.63,1.03,1.47.9-.1,1.81-.02,2.72-.02ZM6.87,79.67c-1.33,0-3.11-.52-3.87.14-.89.77-.16,2.6-.3,3.96-.12,1.18.46,1.49,1.53,1.45,1.72-.05,3.44-.11,5.15.02,1.33.1,1.67-.4,1.52-1.61-.16-1.31.56-3.08-.3-3.83-.73-.64-2.45-.13-3.74-.13ZM23.36,11.17c.71.13,1.21-.26,1.77-.34,1.25-.18,1.56-.92,1.47-2.1-.1-1.43-.03-2.87-.02-4.31,0-1.06-.54-1.64-1.55-1.67-1.02-.03-1.64.54-1.65,1.57-.03,2.29,0,4.58,0,6.85Z"/>
      <path class="cls-1" d="M22.46,63.55c-.98.02-1.52-.21-1.68-.94-.14-.67.02-1.3.7-1.55,1.78-.65,3.57-1.28,5.39-1.81.65-.19,1.17.25,1.42.91.27.7,0,1.34-.59,1.57-1.81.71-3.66,1.29-5.24,1.83Z"/>
      <path class="cls-1" d="M66.22,56.19c2.1,0,4.21-.03,6.31,0,1.74.03,2.54.85,2.57,2.55.02.96.03,1.91,0,2.87-.05,1.38-.81,2.31-2.19,2.33-4.44.06-8.89.06-13.34,0-1.43-.02-2.2-.97-2.24-2.45-.03-.96-.04-1.91,0-2.87.06-1.51.91-2.39,2.44-2.42,2.15-.05,4.3-.01,6.45-.01ZM66.31,58.92c-1.82,0-3.63.04-5.45-.01-1.12-.03-.71.75-.76,1.27-.05.55-.17,1.12.79,1.11,3.54-.05,7.07-.06,10.61,0,1.11.02.91-.63.95-1.29.05-.74-.08-1.14-.98-1.1-1.72.07-3.44.02-5.16.02Z"/>
      <path class="cls-1" d="M66.33,45.97c2.06,0,4.11-.02,6.17,0,1.82.02,2.58.81,2.6,2.65.01.91.02,1.82,0,2.73-.05,1.5-.91,2.38-2.44,2.39-4.3.03-8.61.03-12.91,0-1.41,0-2.33-.91-2.41-2.31-.06-1.05-.05-2.11,0-3.16.07-1.44.93-2.27,2.4-2.29,2.2-.03,4.4,0,6.6-.01ZM66.14,51.04c1.77,0,3.54-.06,5.31.02,1.06.05.99-.56.99-1.26,0-.71.07-1.26-.99-1.24-3.49.07-6.99.07-10.48,0-1.03-.02-.9.57-.87,1.17.03.6-.31,1.38.88,1.33,1.72-.08,3.45-.02,5.17-.02Z"/>
      <path class="cls-1" d="M61.79,66.57c3.89-.12,4.6.13,4.47,4.41-.08,2.74-.67,3.39-3.39,3.4-.96,0-1.92.02-2.88,0-1.77-.05-2.64-.93-2.69-2.67,0-.19,0-.38,0-.58-.01-4.42.12-4.56,4.48-4.56ZM61.69,71.58c.3,0,.49-.02.68,0,.85.11,1.25-.09,1.24-1.11,0-1-.27-1.4-1.27-1.24-.28.04-.58.05-.85,0-1.25-.24-1.47.35-1.43,1.48.05,1.56,1.19.55,1.63.87Z"/>
    </g>
  </g>
</svg>