<?xml version="1.0" encoding="UTF-8"?>
<svg id="Capa_2" data-name="Capa 2" xmlns="http://www.w3.org/2000/svg" viewBox="0 0 96.31 96.29">
  <defs>
    <style>
      .cls-1 {
        fill: #444;
        stroke-width: 0px;
      }
    </style>
  </defs>
  <g id="Capa_1-2" data-name="Capa 1">
    <g>
      <path class="cls-1" d="M20.17,13.61c-.39-.23-.79-.43-1.15-.69-1.25-.9-1.25-2.38.08-3.2,1.35-.84,2.76-1.61,4.19-2.31.99-.48,1.67-1.15,2.15-2.14.67-1.39,1.44-2.74,2.24-4.07.94-1.56,2.68-1.63,3.39.03,1.68,3.96,4.38,6.71,8.36,8.38,1.75.74,1.67,2.44.05,3.48-.29.19-.6.36-.99.59.52.39,1.08.22,1.57.22,15.23.01,30.46.09,45.68-.03,6.47-.05,10.64,4.49,10.57,10.56-.17,15.83-.16,31.66,0,47.49.06,6-4.06,10.73-10.6,10.52-3.44-.11-6.88-.02-10.34-.02.04.17.04.29.09.33.92.56,2.07.94,1.99,2.35-.07,1.31-1.12,1.75-2.06,2.13-3.37,1.36-5.72,3.67-7,7.07-.12.32-.3.63-.49.92-.92,1.41-2.73,1.5-3.36-.04-1.66-4.04-4.41-6.82-8.45-8.51-1.64-.69-1.54-2.42-.03-3.4.33-.21.67-.4.99-.85h-1.53c-14.98,0-29.96-.08-44.93.04C4.14,82.49-.06,77.98,0,71.89c.17-15.88.05-31.76.06-47.64,0-6.44,3.92-10.35,10.38-10.35,3.23,0,6.46,0,9.69,0,.01-.1.02-.19.04-.29ZM48.31,39.3c-14.32,0-28.64.02-42.96-.03-1.27,0-1.56.35-1.56,1.58.05,10.46.11,20.93-.01,31.39-.04,3.74,2.7,6.37,6.33,6.34,16.02-.13,32.05-.15,48.07.03,3.11.04,5.27-.49,6.22-3.63.03-.09.07-.19.13-.27.9-1.34,2.44-1.37,3.31-.02.56.88,1.1,1.8,1.5,2.76.37.89.94,1.1,1.84,1.09,4.96-.04,9.92-.19,14.87.03,4,.18,6.54-2.74,6.49-6.48-.13-10.36-.07-20.73-.02-31.09,0-1.33-.28-1.75-1.7-1.74-14.17.06-28.34.04-42.51.04ZM48.14,35.5c13.58,0,27.15,0,40.73,0,3.63,0,3.56,0,3.66-3.64.04-1.4-.43-1.61-1.69-1.61-11.32.05-22.64.03-33.97.02-1.72,0-2.51-.63-2.51-1.89,0-1.26.81-1.89,2.49-1.89,3.41,0,6.81,0,10.22,0,8.02,0,16.03,0,24.05-.02.46,0,1.25.39,1.34-.47.44-3.98-.65-8.25-6.13-8.23-16.43.04-32.86.09-49.3-.06-2.88-.03-4.9.46-5.73,3.43-.04.14-.15.25-.24.38-.96,1.45-2.43,1.49-3.36.02-.59-.93-1.12-1.89-1.59-2.88-.33-.68-.76-.9-1.51-.89-5.11.04-10.22,0-15.33.03-2.61.01-4.9,1.9-5.31,4.41-.17,1.03-.05,2.1-.16,3.15-.09.95.27,1.18,1.18,1.16,3-.06,6.01-.02,9.02-.02,8.27,0,16.53,0,24.8,0,1.46,0,2.47.8,2.35,1.93-.14,1.31-1,1.89-2.29,1.86-.4,0-.8,0-1.2,0-10.02,0-20.04,0-30.06,0-3.81,0-3.75,0-3.82,3.8-.02,1.24.4,1.45,1.52,1.45,14.28-.04,28.56-.02,42.83-.02ZM34.71,11.34c-2.63-1.02-4.32-2.8-5.34-5.83-1.01,3.05-2.74,4.81-5.39,5.82,2.66.96,4.35,2.78,5.43,5.35.98-2.63,2.69-4.33,5.3-5.34ZM60.83,85.03c2.79.84,4.24,2.85,5.42,5.64.97-3.01,2.75-4.69,5.34-5.74-2.73-.85-4.31-2.74-5.42-5.64-1.04,2.93-2.74,4.7-5.35,5.75Z"/>
      <path class="cls-1" d="M74.45,47.87c1.9,0,3.81.04,5.71-.02,1.01-.03,1.73.31,2.27,1.14,1.55,2.39,3.11,4.77,4.68,7.15.66.99.55,1.88-.26,2.71-3.65,3.71-7.29,7.43-10.97,11.11-1.04,1.04-1.97,1.04-3,0-3.67-3.69-7.31-7.41-10.96-11.12-.77-.78-.92-1.66-.34-2.58,1.62-2.52,3.27-5.02,4.92-7.52.46-.69,1.14-.9,1.94-.89,2,.03,4.01,0,6.01,0ZM66.69,55.32h15.36c-.75-1.15-1.41-2.13-2.03-3.13-.27-.44-.63-.58-1.12-.57-3.05.01-6.09,0-9.14,0-.35,0-.68.03-.91.38-.69,1.07-1.39,2.13-2.17,3.31ZM81.11,59.78l-.34-.37h-12.86c-.07.12-.14.23-.21.35,1.99,1.9,4.01,3.77,5.97,5.7.56.55.86.54,1.43-.01,1.97-1.93,4-3.78,6.01-5.67Z"/>
      <path class="cls-1" d="M40.13,58.84c0-2.75-.02-5.5,0-8.25.02-1.93.62-2.53,2.5-2.54,1.55-.01,3.1-.05,4.65.02,3.94.17,6.94,3.31,6.84,7.08-.1,3.81-3.18,6.76-7.13,6.82q-3.08.05-3.08,3.11c0,.85,0,1.7,0,2.55.01,1.22-.52,2.03-1.77,2.18-1.12.13-1.97-.72-2-2.11-.05-2.95-.02-5.9-.02-8.85ZM46.02,51.83q-2.1-.03-2.09,2.12c0,.4,0,.8,0,1.2,0,3.49.18,3.63,3.7,2.97,1.63-.31,2.7-1.54,2.71-3.1,0-1.58-1.2-2.96-2.82-3.18-.49-.07-1-.01-1.5-.01Z"/>
      <path class="cls-1" d="M20.71,62.93c1.47-4.42,4.41-13.19,4.55-13.56.43-1.15,1.33-1.53,2.4-1.14,1.09.39,1.47,1.3,1.09,2.44-1.21,3.64-5.09,15.16-5.77,17.29-.36,1.13-1.03,1.84-2.23,1.85-1.29.02-1.96-.82-2.34-1.94-1.96-5.65-3.92-11.29-5.86-16.94-.47-1.35-.09-2.35.98-2.75,1.08-.4,2.03.09,2.51,1.44,1.54,4.31,3.04,8.64,4.67,13.31Z"/>
      <path class="cls-1" d="M36.41,58.94c0,2.85.01,5.7,0,8.54,0,1.49-.74,2.41-1.92,2.33-1.38-.09-1.86-1.04-1.86-2.26-.02-5.75-.02-11.49,0-17.24,0-1.23.47-2.18,1.87-2.25,1.18-.06,1.91.83,1.91,2.33.01,2.85,0,5.7,0,8.54Z"/>
      <path class="cls-1" d="M47.67,30.25c-1.03-.03-1.9-.95-1.8-1.97.11-1.08.76-1.71,1.84-1.77,1.01-.06,1.91.88,1.9,1.89-.01,1.01-.93,1.89-1.94,1.86Z"/>
    </g>
  </g>
</svg>