<?xml version="1.0" encoding="UTF-8"?>
<svg id="Capa_2" data-name="Capa 2" xmlns="http://www.w3.org/2000/svg" viewBox="0 0 99.88 79.2">
  <defs>
    <style>
      .cls-1 {
        fill: #444;
        stroke-width: 0px;
      }
    </style>
  </defs>
  <g id="Capa_1-2" data-name="Capa 1">
    <g>
      <path class="cls-1" d="M42.64,31.99c-6.89-6.22-5.24-14.11-1.22-18.13,4.7-4.7,12.24-4.74,16.99-.09,3.94,3.85,5.95,11.76-1.05,18.16,1.78.81,3.61,1.39,5.26,2.37,1.73,1.02,3.4,2.13,4.81,3.57.69.7,1,.56,1.46-.22,4.17-7.01,4.52-14.22,1.2-21.64-.16-.36-.38-.71-.51-1.09-.33-1-.13-1.81.91-2.26.97-.42,1.67,0,2.15.82,1.36,2.35,2.2,4.9,2.72,7.54,2.28,11.76-4.26,23.89-15.34,28.53-15.18,6.36-32.37-2.86-35.48-19.04C21.26,13.46,35.85-1.97,53.18.21c2.87.36,5.58,1.16,8.17,2.41,1.16.56,2.49,1.14,1.65,2.77-.77,1.5-1.99.89-3.11.35-8.66-4.16-18.58-2.62-25.43,3.95-7.49,7.19-9.02,18.68-3.69,27.55.56.93.95,1.56,2.01.38,1.27-1.4,2.91-2.39,4.55-3.33,1.63-.94,3.38-1.6,5.31-2.29ZM50.04,34.37c-5.77.1-10.84,1.99-15.14,5.9-.79.72-.95,1.14-.06,1.98,8.3,7.82,22,7.82,30.28,0,.79-.74.81-1.13.01-1.86-4.28-3.93-9.32-5.87-15.09-6.01ZM49.81,30.94c4.74.08,8.69-3.75,8.74-8.49.05-4.68-3.69-8.58-8.36-8.7-4.75-.12-8.73,3.66-8.83,8.4-.1,4.75,3.71,8.71,8.45,8.79Z"/>
      <path class="cls-1" d="M62.17,67.49c2.26-3.31,5.16-5.65,8.93-7.14-2.55-2.5-4-5.41-3.54-8.95.34-2.58,1.54-4.76,3.57-6.45,3.86-3.22,9.48-3.05,13.16.41,4.29,4.03,4.21,8.94-.29,15.02,3.64,1.47,6.57,3.83,8.86,7.2,2.78-3.98,4.01-8.25,3.4-12.9-1.19-9.08-7.3-15.22-16.34-16.66-.28-.05-.56-.1-.85-.13-1.17-.15-1.79-.81-1.62-1.98.18-1.2,1.07-1.53,2.17-1.42,3.94.41,7.59,1.65,10.78,4.03,7.6,5.68,10.82,13.35,8.97,22.58-1.89,9.44-8,15.42-17.4,17.58-13.49,3.09-26.87-7.85-26.86-21.73,0-1.27.06-2.59,1.71-2.64,1.7-.05,1.74,1.25,1.75,2.54.03,3.99,1.35,7.9,3.59,10.64ZM77.36,75.68c4.65-.06,8.69-1.52,12.23-4.42.69-.57.82-.99.32-1.82-5.45-9.02-19.23-9.07-24.8-.08-.54.88-.44,1.33.34,1.95,3.51,2.82,7.5,4.28,11.91,4.37ZM77.52,46.1c-3.6-.01-6.56,2.91-6.58,6.49-.01,3.56,2.96,6.56,6.51,6.58,3.55.02,6.56-2.96,6.58-6.51.02-3.59-2.92-6.54-6.51-6.55Z"/>
      <path class="cls-1" d="M7.11,67.5c2.26-3.29,5.14-5.66,8.94-7.15-2.59-2.6-4.08-5.59-3.49-9.26.42-2.57,1.69-4.71,3.77-6.34,3.95-3.09,9.59-2.75,13.15.81,4.07,4.07,3.92,9.05-.51,14.78,1.75.83,3.46,1.7,4.96,2.92,1.48,1.21,2.7,2.64,3.91,4.27,2.21-3,3.27-6.31,3.51-9.91.02-.34.04-.69.02-1.03-.06-1.22.21-2.28,1.65-2.3,1.55-.02,1.8,1.12,1.8,2.38,0,3.97-.95,7.7-2.93,11.14-4.79,8.32-13.7,12.47-23.48,10.95-8.53-1.32-16.04-8.68-17.92-17.55-2.71-12.79,6.66-25.48,19.74-26.73,1.17-.11,2.12.17,2.27,1.48.14,1.29-.66,1.81-1.87,1.95-6.61.75-11.55,4.08-14.81,9.84-3.47,6.15-2.93,14.37,1.3,19.74ZM22.44,75.68c4.56-.08,8.55-1.54,12.05-4.38.78-.64.85-1.09.32-1.95-5.56-8.93-19.08-8.95-24.72-.05-.61.96-.43,1.43.38,2.07,3.53,2.8,7.52,4.24,11.96,4.31ZM22.57,46.1c-3.62-.05-6.62,2.83-6.67,6.39-.05,3.57,2.87,6.61,6.41,6.68,3.55.07,6.62-2.88,6.67-6.42.05-3.6-2.85-6.61-6.41-6.65Z"/>
      <path class="cls-1" d="M13.83,9.45c-1.15.91-2.19,1.26-3.04.17-.95-1.22-.1-2.1.76-2.94.86-.83,1.71-1.69,2.55-2.54,1.02-1.02,1.99-.93,2.97.07.92.94,1.85,1.87,2.79,2.79.77.75,1.21,1.59.49,2.57-.72.96-1.63.9-2.56.27-.12-.08-.29-.1-.51-.18,0,5.16,0,10.25,0,15.33,0,.75.03,1.53-.6,2.06-.5.42-1.11.59-1.76.3-.77-.34-1.09-.96-1.09-1.78,0-2.75,0-5.49,0-8.24,0-2.52,0-5.04,0-7.89Z"/>
      <path class="cls-1" d="M82.64,9.43c-1.01.82-1.92,1.23-2.8.45-.89-.78-.85-1.74-.09-2.57,1.05-1.13,2.16-2.21,3.27-3.28.9-.86,1.84-.81,2.72.05.82.8,1.63,1.61,2.43,2.42.84.85,1.94,1.67.99,3.05-.87,1.25-1.97.69-3.08,0,0,5.04,0,9.9,0,14.75,0,.46.01.92,0,1.37-.05,1.07-.59,1.78-1.67,1.8-1.17.02-1.75-.72-1.76-1.87-.02-2,0-4.01,0-6.01,0-3.26,0-6.52,0-10.16Z"/>
      <path class="cls-1" d="M68.66,8.78c-.04,1.12-.7,1.7-1.73,1.67-1.04-.03-1.69-.73-1.63-1.79.05-.95.64-1.56,1.66-1.56,1.09,0,1.66.59,1.69,1.68Z"/>
    </g>
  </g>
</svg>