<?xml version="1.0" encoding="UTF-8"?>
<svg id="Capa_2" data-name="Capa 2" xmlns="http://www.w3.org/2000/svg" viewBox="0 0 97.03 78.6">
  <defs>
    <style>
      .cls-1 {
        fill: #444;
        stroke-width: 0px;
      }
    </style>
  </defs>
  <g id="Capa_1-2" data-name="Capa 1">
    <g>
      <path class="cls-1" d="M58.83,38.05c-3.35.04-6.03-1-7.52-4.3-.77-1.7-1.8-3.28-2.78-4.88-1.07-1.74-1.13-3.52-.44-5.39,1.18-3.18,3.32-5.68,5.75-7.93,8.07-7.47,17.32-12.78,28.15-15.09,1.97-.42,3.97-.65,6.04-.27,2.21.41,3.84,1.39,4.9,3.4.94,1.79,1.94,3.56,3.04,5.26,1.42,2.19,1.34,4.37.25,6.62-2.09,4.33-5.52,7.51-9.21,10.38-6.82,5.31-14.32,9.33-22.77,11.42-1.77.44-3.57.73-5.41.76ZM58.69,35.25c-1.59-1.5-.07-1.69.68-2.23,1.04-.74,1.19.3,1.43.82.49,1.07,1.14,1.41,2.27.98.7-.27,1.46-.39,2.21-.54.94-.19,1.19-.6.56-1.4-.86-1.1.28-1.19.81-1.58.58-.43,1.14-.75,1.49.25.47,1.37,1.31,1.57,2.51.84.47-.29,1-.52,1.53-.66,1.16-.31,1.35-.89.58-1.79-.65-.76-.2-1.13.49-1.39.59-.22,1.29-1.27,1.79,0,.56,1.42,1.32,1.33,2.33.55.28-.21.6-.39.92-.52,1.29-.55,2-1.19.86-2.61-.76-.94.41-1.01.85-1.28.39-.24.97-1.13,1.39-.07.63,1.59,1.42,1.27,2.39.35.37-.35.78-.66,1.22-.91,1.01-.56,1.16-1.21.44-2.15-.23-.3-.87-.66-.32-1.27,1-1.11,1.95-1.07,2.73.14.1.16.24.31.5.65.77-.84,1.43-1.68,2.21-2.39.94-.86,1.15-1.69.29-2.7-.61-.72-.61-1.19.34-1.73.98-.56,1.64-.66,2.11.58,1.57-2.7,1.42-3.79-.59-6.41-9.97,13.13-23.05,20.81-39.51,22.7.89,2.17,2.16,4.15,5.51,3.77ZM55.06,28.46c1.04-.08,1.92-.05,2.76-.23,11.23-2.5,20.82-7.96,28.82-16.2,1.49-1.53,2.76-3.24,3.48-5.3.73-2.1.03-3.28-2.1-3.79-1.94-.46-3.88-.27-5.74.16-10.57,2.44-19.66,7.63-27.4,15.19-1.81,1.77-3.44,3.73-4.31,6.19-.74,2.1.06,3.51,2.24,3.84.8.12,1.62.11,2.25.14Z"/>
      <path class="cls-1" d="M37.21,55.89c-5.28-.28-10.74-2.4-16-5.06-6.84-3.46-13.11-7.7-18.03-13.7-1.25-1.53-2.29-3.2-2.88-5.13-.5-1.65-.4-3.18.48-4.67,1.06-1.79,2.21-3.53,3.1-5.4,1.38-2.93,3.78-3.93,6.78-3.97,4.34-.05,8.41,1.17,12.36,2.76,8.41,3.39,16,8.06,22.19,14.8,1.58,1.72,2.93,3.62,3.74,5.85.68,1.87.65,3.65-.42,5.39-.95,1.55-1.94,3.1-2.73,4.73-1.8,3.71-3.9,4.42-8.6,4.39ZM41.73,46.37c.82-.04,1.53-.02,2.23-.11,2.47-.32,3.28-1.72,2.43-4.07-.51-1.4-1.29-2.64-2.25-3.76-6.66-7.82-15.19-12.8-24.75-16.18-3.12-1.1-6.33-1.81-9.68-1.54-2.7.21-3.66,1.74-2.67,4.26.77,1.97,2.07,3.59,3.49,5.12,4.87,5.23,10.73,9.07,17.13,12.13,4.49,2.15,9.13,3.87,14.08,4.14ZM24.72,47.03q-1.12,2.06.89,2.95c1.37.61,2.76,1.56,3.48-.82.24-.81.87-.25,1.21.02.44.35,1.65.41,1.07,1.26-1.08,1.57-.09,1.71,1.04,1.93.54.11,1.1.21,1.62.39,1.1.38,1.83.07,2.21-1.05.37-1.1.88-1.08,1.9-.55,1.13.59.93,1.2.44,2.02,2.98.14,4.52-1.09,5.16-3.71-16.38-2.1-29.52-9.63-39.39-22.84-2.05,3.1-2.16,4.12-.53,6.41.17-.27.28-.55.48-.74.87-.78,1.28.34,1.92.52.63.17.62.65.24,1.04-1.52,1.57-.5,2.64.63,3.76.54.53.98,1.16,1.38,1.64.73-.27.88-.69,1.02-1.04.55-1.36,1.2-.29,1.75-.06.56.24,1.33.53.58,1.38-1.02,1.14-.76,2.01.54,2.7.44.24.86.55,1.22.9.86.81,1.51.81,1.95-.39.45-1.23,1.09-.39,1.62-.11.57.3,1.48.54.64,1.47-1.01,1.11-.4,1.69.65,2.19.55.26,1.08.56,1.57.92.81.6,1.44.63,1.8-.45.36-1.08.97-1.07,1.77-.46.32.24.68.43,1.14.72Z"/>
      <path class="cls-1" d="M82.93,40.54c2.82-.06,5.48,1.01,6.99,4.3.69,1.51,1.57,2.95,2.5,4.34,1.6,2.38,1.45,4.75.21,7.19-1.3,2.57-3.13,4.74-5.22,6.67-8.08,7.46-17.32,12.78-28.15,15.1-2.13.46-4.3.69-6.49.19-1.82-.42-3.29-1.24-4.22-2.92-1.06-1.9-2.1-3.82-3.27-5.65-1.42-2.2-1.34-4.39-.27-6.63,1.76-3.71,4.59-6.57,7.68-9.13,7.18-5.96,15.2-10.37,24.3-12.68,1.77-.45,3.57-.76,5.95-.77ZM49.86,72.03c.92,2.88,2.34,3.96,5.2,3.7-1.18-1.45.15-1.73,1.01-2.25,1.2-.73,1.1.58,1.32.98.56,1.03,1.17,1.36,2.28.88.64-.28,1.37-.37,2.07-.48,1.1-.18,1.29-.63.62-1.54-.85-1.16.47-1.13.93-1.52.45-.39,1.03-.8,1.36.18.55,1.66,1.6,1.6,2.87.84.39-.23.81-.45,1.24-.56,1.18-.3,1.34-.87.57-1.78-.68-.8-.09-1.14.55-1.43.61-.28,1.33-1.16,1.77.13.49,1.4,1.25,1.2,2.2.52.37-.26.77-.5,1.18-.68,1.26-.52,1.78-1.2.71-2.41-.67-.75.04-1.08.57-1.25.53-.17,1.15-1.36,1.67-.16.63,1.47,1.33,1.26,2.27.39.45-.41.93-.8,1.46-1.1.9-.52.99-1.1.35-1.9-.53-.67-.89-1.27.27-1.85.94-.47,1.58-.79,2.02.47.07.19.12.52.62.64.66-.56,1.13-1.31,1.76-1.87,1.16-1.03,1.71-2.06.51-3.41-.26-.3-.51-.62-.09-1.04.98-.99,1.92-.96,2.72.13,1.61-2.43,1.44-3.83-.62-6.34-9.94,13.13-23,20.73-39.38,22.72ZM51.72,69.01c.77-.06,1.54-.04,2.28-.19,11.45-2.38,21.13-7.97,29.26-16.3,1.45-1.48,2.69-3.17,3.41-5.17.77-2.15.18-3.25-2-3.85-2.19-.6-4.34-.16-6.46.3-7.03,1.52-13.32,4.72-19.21,8.74-4.16,2.84-8.06,6-10.8,10.35-.89,1.41-1.96,2.97-1,4.65.96,1.69,2.88,1.39,4.52,1.49Z"/>
      <path class="cls-1" d="M30.45,60.4c1.21-.31,1.55.28,1.36,1.36-.25,1.42.37,1.92,1.71,1.67,1.17-.22,1.42.29,1.43,1.4,0,1.08-.31,1.49-1.36,1.29-1.44-.27-2.06.27-1.77,1.75.2,1.04-.2,1.35-1.28,1.36-1.11,0-1.65-.24-1.41-1.41.32-1.58-.48-1.93-1.82-1.69-1.13.2-1.3-.36-1.31-1.36-.01-1.05.28-1.53,1.35-1.33,1.43.26,2.06-.24,1.79-1.74-.18-1.02.18-1.58,1.32-1.29Z"/>
      <path class="cls-1" d="M91.8,38.98c-1.17.3-1.44-.28-1.28-1.2.24-1.41-.22-2.1-1.75-1.81-1.02.2-1.38-.18-1.38-1.28,0-1.14.31-1.61,1.45-1.4,1.43.27,1.9-.38,1.68-1.72-.16-1,.13-1.43,1.27-1.4,1,.03,1.55.21,1.35,1.32-.26,1.43.25,2.1,1.75,1.8,1.23-.24,1.35.41,1.39,1.46.04,1.21-.52,1.38-1.45,1.22-1.4-.23-1.93.33-1.7,1.71.18,1.09-.16,1.71-1.33,1.31Z"/>
      <path class="cls-1" d="M39.89,19.83c-1.13.3-1.38-.37-1.22-1.42.19-1.24-.14-1.92-1.58-1.67-.91.16-1.6.11-1.56-1.25.03-1.22.45-1.53,1.51-1.35,1.35.24,1.87-.31,1.64-1.65-.18-1.04.11-1.49,1.34-1.51,1.36-.02,1.39.68,1.26,1.59-.18,1.28.31,1.69,1.58,1.59,1.44-.11,1.96.75,1.53,2.16-.21.69-.75.46-1.12.41-1.5-.19-2.23.21-2.01,1.91.15,1.17.01,1.18-1.36,1.19Z"/>
      <path class="cls-1" d="M84.63,3.92c1.43-.08,2.81.05,3.56,1.48.72,1.39.14,2.64-.62,3.84-1.14,1.77-2.64,3.22-4.24,4.54-6.95,5.7-14.61,10.15-23.23,12.84-1.54.48-3.14.85-4.78.74-2.69-.19-3.82-2.18-2.61-4.59,1.09-2.18,2.84-3.82,4.69-5.32,7.46-6.05,15.58-10.87,24.98-13.29.75-.19,1.5-.21,2.26-.23ZM84.55,6.55c-1.31.05-2.49.35-3.65.72-8.24,2.71-15.61,6.98-22.23,12.55-1.32,1.11-2.54,2.33-3.46,3.83-.5.81-.29,1.05.6,1.03,1.23-.03,2.42-.3,3.58-.65,7.2-2.21,13.65-5.86,19.69-10.29,2.29-1.68,4.49-3.49,6.16-5.84.22-.31.62-.67.44-1.07-.23-.52-.79-.24-1.13-.29Z"/>
      <path class="cls-1" d="M40.04,45.17c-3.39-.32-7.02-1.85-10.59-3.56-6.57-3.14-12.77-6.88-17.99-12.05-1.05-1.04-2-2.17-2.59-3.54-.92-2.13.09-3.91,2.4-4.18,2.87-.33,5.51.66,8.12,1.61,2.57.93,5.02,2.14,7.46,3.38.79.4,1.27.73.59,1.67-.49.67-.59,1.45-1.82.77-3.9-2.16-7.97-3.98-12.41-4.77-.4-.07-.81-.12-1.21-.11-.72,0-.93.33-.5.96.44.62.81,1.31,1.35,1.83,7.68,7.35,16.57,12.59,26.91,15.26.74.19,1.82.51,2.15-.02.45-.72-.47-1.43-.97-2.02-3.17-3.73-7.22-6.35-11.3-8.92-1.19-.75-1.24-2-.13-2.85.38-.29.55.02.77.15,4.37,2.61,8.57,5.43,12.08,9.17.52.55.99,1.16,1.41,1.79.85,1.25,1.55,2.61.67,4.1-.85,1.43-2.34,1.41-4.42,1.34Z"/>
      <path class="cls-1" d="M81.23,44.37c1.38.02,2.72.16,3.49,1.47.81,1.37.24,2.68-.53,3.85-1.69,2.58-4.02,4.55-6.46,6.38-6.49,4.84-13.44,8.83-21.25,11.12-1.78.52-3.6,1.1-5.51.51-1.91-.58-2.64-2.01-1.94-3.87.55-1.46,1.51-2.65,2.61-3.7,7.64-7.22,16.54-12.28,26.59-15.3.96-.29,2-.31,3-.46ZM52.59,65.29c.94-.19,1.89-.32,2.82-.58,6.51-1.8,12.34-5.03,17.91-8.76,2.95-1.98,5.8-4.1,8.05-6.9.4-.49,1.12-1.08.85-1.66-.31-.66-1.18-.24-1.8-.21-.5.03-1,.12-1.49.25-7.94,2.15-14.9,6.21-21.42,11.08-2.11,1.58-4.12,3.29-5.61,5.52-.57.85-.44,1.32.7,1.26Z"/>
    </g>
  </g>
</svg>