<?xml version="1.0" encoding="UTF-8"?>
<svg id="Capa_2" data-name="Capa 2" xmlns="http://www.w3.org/2000/svg" viewBox="0 0 85.23 94.76">
  <defs>
    <style>
      .cls-1 {
        fill: #444;
        stroke-width: 0px;
      }
    </style>
  </defs>
  <g id="Capa_1-2" data-name="Capa 1">
    <g>
      <path class="cls-1" d="M42.62,94.76c-13.23,0-26.47,0-39.7,0-2.45,0-3.11-.69-2.88-3.12.98-10.53,5.77-18.6,15.39-23.41,2.99-1.5,6.28-2.26,9.45-3.32,1.1-.37,1.87-.83,2.34-1.96.64-1.54,1.89-2.94,2.12-4.51.23-1.61-1.86-2.45-2.45-3.95-.58-1.47-1.47-2.14-3.25-2.23-3.14-.16-5.04-2.51-5-5.66.01-1.21-.13-2.05-1.37-2.71-1.62-.87-2.42-2.54-2.42-4.33,0-5.47-.4-10.96.42-16.41C16.93,12.11,25.91,2.74,36.87.57c15.26-3.02,29.58,6.31,32.95,21.54.66,2.99.7,6.07.64,9.14-.05,2.52.01,5.04-.01,7.55-.04,3.83-2.38,6.14-6.22,6.18-2.72.03-2.7.03-3.22,2.66-.71,3.6-2.23,6.82-4.7,9.55-.54.59-.65,1.02-.27,1.79,2.65,5.41,2.59,5.55,8.67,7.31,7.8,2.26,13.68,6.77,17.42,14.01,1.86,3.6,2.81,7.44,3.09,11.47.16,2.26-.5,2.98-2.74,2.98-13.28,0-26.56,0-39.85,0ZM30.01,52.4c3.46,5.72,8.98,8.15,15.69,7.07,5.05-.81,10.26-6.07,11.44-11.55,1.1-5.12,1.54-10.32,2-15.52.08-.9-.29-1.01-1.05-1.1-6.9-.84-13.18-3.24-18.44-7.87-1.2-1.06-2.31-1.32-3.71-.91-.71.21-1.4.46-2.09.72-3.31,1.28-5.29,3.99-7.27,6.71-.41.56-.56,1.09-.51,1.76.34,4.67.8,9.33,1.53,13.95.46,2.95.51,2.94,3.5,2.94.54,0,1.09-.04,1.63,0,.67.06,1.02-.19,1.36-.8,1.08-1.91,2.78-2.86,5-2.83,1.28.02,2.57-.03,3.85.03,2.93.14,5.3,2.64,5.28,5.53-.02,2.9-2.4,5.36-5.34,5.45-1.28.04-2.57,0-3.85.02-2.24.04-3.88-.98-4.96-2.88-.31-.56-.61-.79-1.23-.76-.87.05-1.74.01-2.83.01ZM39.23,91.06c-.32-.54-.48-.84-.67-1.13-4.43-6.68-8.96-13.3-11.6-20.97-.26-.76-.71-.66-1.27-.47-1.35.46-2.68.97-4.05,1.36-10.02,2.84-15.75,9.5-17.68,19.63-.23,1.22-.05,1.61,1.29,1.6,10.9-.05,21.8-.03,32.69-.03h1.28ZM45.92,91.06h5.56c9.52,0,19.03,0,28.55,0,.7,0,1.55.25,1.33-1.04-1.4-8.34-5.47-14.81-13.27-18.49-2.6-1.23-5.48-1.86-8.19-2.89-1.02-.39-1.43-.27-1.82.79-2.2,5.98-5.27,11.52-8.96,16.72-1.07,1.51-2.02,3.1-3.2,4.92ZM59.23,25.62c-.04-2.99-1.03-5.66-2.68-8.14-4.72-7.12-14.78-7.77-21.47-5.13-4.48,1.77-7.29,5.23-8.57,9.89-.15.54-.88,1.21-.35,1.58.68.46,1.02-.54,1.44-.92,2.57-2.3,5.55-3.69,8.93-4.25,1.81-.3,3.33-.07,4.83,1.36,4.41,4.18,9.78,6.49,15.77,7.42q2.11.33,2.09-1.79ZM44.14,3.68c-5.2,0-8.8.76-12.14,2.47-7.65,3.93-12.02,10.22-13.29,18.69-.06.37-.31.85.41,1.04,2.09.54,3.05-.05,3.32-2.11.77-5.94,3.8-10.44,8.8-13.66,4.38-2.82,9.29-3,14.25-2.69,8.95.56,16.17,7.43,17.29,16.34.27,2.19.27,2.14,2.72,2.14.98,0,1.13-.31,1.01-1.21-1.67-12.07-11.72-20.95-22.38-21.02ZM42.55,89.38c2.26-3.4,4.36-6.59,6.49-9.77.36-.54.15-.86-.24-1.24-1.9-1.87-3.8-3.73-5.63-5.66-.65-.68-.98-.45-1.5.11-1.67,1.81-3.34,3.63-5.09,5.36-.68.68-.58,1.14-.12,1.86,1.94,3.08,4.22,5.94,6.09,9.34ZM52.9,60.97c-2.48,2.63-4.83,5.14-7.22,7.63-.49.52-.63.84-.03,1.42,1.68,1.59,3.31,3.23,4.91,4.91.63.66.86.47,1.2-.23,1.24-2.56,2.39-5.16,3.36-7.83.2-.54.26-1.01-.02-1.55-.73-1.39-1.42-2.79-2.21-4.34ZM33.97,75.58c1.86-1.95,3.58-3.78,5.32-5.57.45-.46.42-.75-.03-1.19-2.38-2.36-4.72-4.75-7.2-7.24-.68,1.33-1.26,2.51-1.89,3.66-.32.58-.26,1.1-.04,1.69,1.09,2.89,2.28,5.74,3.84,8.66ZM18.61,34.88c0,1.43,0,2.85,0,4.28,0,1.32.62,2.01,1.95,2.03.54,0,1.09-.04,1.62.02.78.08,1.02-.2.94-.99-.27-2.64-.59-5.28-.64-7.94-.06-2.77-.09-2.74-2.8-2.72-.8,0-1.13.16-1.08,1.04.07,1.42.02,2.85.02,4.28ZM66.63,34.8c0-1.08,0-2.17,0-3.25,0-1.97,0-1.86-2.02-2.01-1.47-.11-1.82.47-1.83,1.79-.03,2.46-.15,4.91-.54,7.35-.41,2.56-.35,2.59,2.22,2.52,1.61-.05,2.15-.6,2.16-2.26.01-1.38,0-2.76,0-4.13ZM40.84,48.63c-.64,0-1.29-.06-1.92.01-1.12.13-1.87.8-1.84,1.93.04,1.04.78,1.72,1.84,1.78,1.22.08,2.46.1,3.69,0,1-.09,1.77-.6,1.8-1.77.04-1.24-.74-1.76-1.8-1.93-.57-.09-1.18-.02-1.77-.02ZM45.24,63.44c-1.06,0-2.04,0-3.01,0s-2.02,0-3.27,0c1.39,1.01,2.15,2.89,3.51,2.93.89.03,1.83-1.74,2.75-2.7.02-.02.01-.08.02-.23ZM22.2,46.08c-.03.51.03.94.21,1.35.3.68.79,1.3,1.53,1.1.86-.24.09-.97.16-1.47.05-.33-.12-.67-.13-1.01-.02-.79-.33-1.12-1.17-1.08-.99.05-.47.76-.61,1.11Z"/>
      <path class="cls-1" d="M76.04,84.33c-.03.86-.41,1.49-1.18,1.75-.73.25-1.57.22-2-.5-1.3-2.17-2.88-4.08-4.75-5.77-.71-.64-.59-1.55-.02-2.28.59-.75,1.49-.97,2.24-.44,2.5,1.75,4.38,4.05,5.62,6.85.06.13.06.29.08.39Z"/>
      <path class="cls-1" d="M62.99,73.31c1.14.1,1.74.73,1.82,1.79.07.98-.88,1.89-1.87,1.86-1.01-.03-1.85-.93-1.75-1.95.11-1.09.77-1.63,1.8-1.7Z"/>
    </g>
  </g>
</svg>