<?xml version="1.0" encoding="UTF-8"?>
<svg id="Capa_2" data-name="Capa 2" xmlns="http://www.w3.org/2000/svg" viewBox="0 0 87.56 85.57">
  <defs>
    <style>
      .cls-1 {
        fill: #444;
        stroke-width: 0px;
      }
    </style>
  </defs>
  <g id="Capa_1-2" data-name="Capa 1">
    <g>
      <path class="cls-1" d="M12.57,20.95c-.89-3.62-.02-5.54,3.17-7.23,7.86-4.18,15.72-8.35,23.58-12.53,2.96-1.57,5.91-1.59,8.86-.01,1,.53,2,1.08,3,1.61.77.41,1.06,1.03.65,1.81-.42.81-1.14.82-1.88.44-1.09-.56-2.17-1.14-3.25-1.71-1.95-1.04-3.91-1.04-5.86,0-8.15,4.31-16.3,8.62-24.45,12.93-.98.52-1.63,1.26-1.62,2.47.01,1.2.63,1.93,1.63,2.46,8.15,4.31,16.29,8.63,24.44,12.95,1.86.98,3.77,1.03,5.64.11,2.08-1.02,4.09-2.16,6.26-3.32-1.83-2.1-3.62-4.14-5.4-6.18-1.41-1.61-2.82-3.23-4.24-4.82-.61-.69-.95-1.43-.15-2.13.81-.73,1.49-.24,2.09.44,2.97,3.39,6.01,6.73,8.88,10.21.93,1.12,1.56,1.11,2.74.47,4.66-2.56,9.38-5,14.08-7.48,1.08-.57,2.01-1.22,2.02-2.64.01-1.48-.93-2.15-2.07-2.75-5.06-2.67-10.12-5.35-15.17-8.03-.16-.09-.33-.16-.49-.25-.78-.42-1.44-.96-.92-1.93.5-.94,1.28-.8,2.11-.36,3.93,2.09,7.87,4.16,11.81,6.24,1.16.61,2.33,1.23,3.49,1.85,3.48,1.85,4.27,3.51,3.47,7.43.88,0,1.73-.01,2.59,0,3.83.07,6.4,2.65,6.4,6.48.01,12.4,0,24.8,0,37.19,0,2.51.03,5.01-.02,7.52-.01.76.2.99.98,1,2.54.02,2.49.09,2.59,2.63.15,3.86-1.03,6.96-4.59,8.89-1.38.75-2.85.89-4.36.89-23.2,0-46.4.02-69.6,0C3.36,85.55,0,82.14,0,76.52c0-.27,0-.55,0-.82,0-2.43.09-2.6,2.51-2.54,1.21.03,1.03-.64,1.03-1.36,0-14.59.07-29.17-.05-43.76-.03-4.11,2.63-7.36,7.08-7.09.63.04,1.27,0,2,0ZM66.17,26.73c.02.07.03.15.05.22,3.17,0,6.33,0,9.5,0,2.06,0,2.26.2,2.26,2.26,0,12.72,0,25.43,0,38.15,0,2.17-.22,2.38-2.44,2.38-17.23,0-34.45,0-51.68,0-.41,0-.82,0-1.23-.04-.74-.09-1.2-.56-1.17-1.27.03-.75.49-1.26,1.32-1.28.36,0,.73,0,1.09,0,16.73,0,33.45-.01,50.18.03,1.12,0,1.44-.25,1.43-1.41-.07-5.47-.03-10.94-.03-16.41,0-6.24,0-12.49,0-18.73,0-.61.1-1.16-.85-1.15-3.28.04-6.56.03-9.84,0-.59,0-.8.19-.78.78.03,1.23.04,2.46,0,3.69-.15,5.18-2.37,9.05-7.13,11.34-.3.14-.78.14-.77.64.03.94-.2,1.89.38,2.78.71,1.11,1.35,2.26,2,3.41,1.13,1.98.86,4.04-.67,5.32-1.5,1.26-4.46,1.27-5.99.02-1.59-1.3-1.86-3.23-.7-5.28.73-1.31,1.49-2.6,2.23-3.91.29-.5.4-1.1.08-1.54-.27-.36-.76.03-1.13.13-6.67,1.73-13.24,1.37-19.74-.82-4.08-1.38-7.04-3.92-8.41-8.08-.8-2.43-.61-4.96-.58-7.46,0-.72-.13-1.05-.95-1.03-3.19.05-6.38.04-9.57,0-.82-.01-.97.31-.96,1.04.02,11.89.02,23.79,0,35.69,0,.84.32.98,1.04.95,1.37-.05,2.73,0,4.1-.02.89-.01,1.6.29,1.65,1.23.06,1.07-.75,1.36-1.65,1.37-1.96.02-3.92,0-5.88,0-1.25,0-1.78-.55-1.78-1.83.02-13.03.01-26.07.02-39.1,0-1.51.34-1.85,1.84-1.86,3.01-.01,6.02,0,9.02-.01.3,0,.69.17.94-.21-.56-.31-1.11-.56-1.59-.89-2.86-1.94-5.97-2.61-9.42-2.35-2.91.22-4.23,1.36-4.23,4.3,0,14.68.01,29.35-.03,44.03,0,1.12.34,1.33,1.38,1.32,24.2-.03,48.4-.03,72.6,0,1.17,0,1.39-.35,1.39-1.45-.04-9.98-.03-19.96-.03-29.94,0-4.74,0-9.48,0-14.22,0-1.7-.53-3.2-2.23-3.68-2.38-.67-4.95-.7-7.28-.07-2.03.55-3.84,1.93-5.74,2.94ZM43.62,83.02c11.76,0,23.51,0,35.27,0,3.66,0,6.13-2.56,6.13-6.23,0-.8-.17-1.11-1.05-1.11-9.57.03-19.14.02-28.71,0-.62,0-.94.15-1.18.81-.94,2.63-2.87,4.05-5.67,4.11-3.1.06-6.2.06-9.3,0-2.8-.05-4.72-1.47-5.69-4.1-.2-.55-.4-.82-1.03-.82-9.66.02-19.32.02-28.98,0-.73,0-.9.26-.92.95-.11,3.69,2.41,6.37,6.12,6.37,11.67.01,23.33,0,35,0ZM26.2,29.29c0,1.9-.05,3.62,0,5.34.13,3.99,2.09,6.85,5.72,8.38,6.51,2.76,13.22,3.01,20.05,1.3,1.15-.29,1.84-.73,1.6-2.09-.14-.8-.03-1.64-.03-2.46v-6.35c-1.99,1.04-3.76,1.96-5.52,2.9-2.87,1.53-5.73,1.54-8.59-.03-.84-.46-1.69-.89-2.53-1.34-3.52-1.86-7.04-3.72-10.71-5.65ZM56.07,42.77c4.45-2.22,5.98-6.31,5.14-13.42-1.59.84-3.13,1.66-4.68,2.46-.39.2-.47.49-.47.88,0,3.31,0,6.61,0,10.07ZM51.63,75.79h-15.73c.7,1.54,1.8,2.27,3.36,2.28,3.01.01,6.01.01,9.02,0,1.56,0,2.66-.73,3.36-2.28ZM54.8,50.92c-.61,1.05-1.2,1.96-1.67,2.93-.29.61-.24,1.35.43,1.69.83.42,1.79.49,2.59-.1.58-.42.67-1.04.27-1.7-.53-.89-1.03-1.79-1.62-2.82Z"/>
      <path class="cls-1" d="M30.07,61.16c4.05,0,8.1,0,12.16,0,.92,0,1.82.05,1.84,1.27.02,1.22-.89,1.33-1.8,1.33-8.15,0-16.3,0-24.45,0-.94,0-1.88-.19-1.88-1.29,0-1.19.97-1.33,1.97-1.32,4.05.02,8.1,0,12.16,0Z"/>
      <path class="cls-1" d="M25.71,55.79c2.68,0,5.37,0,8.05,0,.93,0,1.84.11,1.83,1.29-.01,1.16-.89,1.3-1.84,1.3-5.32,0-10.64-.02-15.97,0-.98,0-1.84-.26-1.84-1.32,0-1.1.89-1.29,1.86-1.28,2.64.03,5.28,0,7.92,0Z"/>
    </g>
  </g>
</svg>