<?xml version="1.0" encoding="UTF-8"?>
<svg id="Capa_2" data-name="Capa 2" xmlns="http://www.w3.org/2000/svg" viewBox="0 0 97.47 97.42">
  <defs>
    <style>
      .cls-1 {
        fill: #444;
        stroke-width: 0px;
      }
    </style>
  </defs>
  <g id="Capa_1-2" data-name="Capa 1">
    <g>
      <path class="cls-1" d="M13.59,64.29c-5.43-3.97-7.46-9.16-5.74-14.43,1.67-5.12,6.35-8.52,11.72-8.5,5.28.02,9.89,3.4,11.57,8.45,1.75,5.27-.28,10.48-5.72,14.47,1.56.83,3.13,1.53,4.48,2.59,1.35,1.06,2.49,2.32,3.63,3.76,2.35-2.83,5.22-4.86,8.86-6.26-3.46-1.95-5.95-4.48-7.29-8-1.36-3.57-1.32-7.14.06-10.68,2.24-5.74,8.06-9.46,14.23-9.13,6.5.35,11.96,4.66,13.51,10.88,1.42,5.67-.24,12.57-7.73,16.93,3.47,1.39,6.43,3.34,8.8,6.33,2.1-2.92,4.81-5.01,8.24-6.37-3.69-2.37-5.98-5.48-6.31-9.82-.27-3.66.82-6.84,3.36-9.49,4.94-5.13,13.31-4.83,17.99.55,4.11,4.73,4.51,13.73-3.34,18.69.26.17.46.35.7.46,6.88,3.09,10.18,8.56,10.46,15.96.11,2.92.04,5.85.01,8.77-.04,3.67-1.98,5.6-5.68,5.61-7.19.02-14.38.02-21.57,0-.95,0-1.73.13-2.48.82-1.26,1.16-2.86,1.54-4.56,1.54-8.04,0-16.08,0-24.13,0-1.56,0-3.11-.27-4.26-1.33-1.01-.93-2.08-1.04-3.33-1.03-6.88.03-13.77.02-20.65.01-4.17,0-6.08-1.86-6.03-5.99.04-3.47-.23-6.94.18-10.41.78-6.61,4.24-11.23,10.29-13.95.22-.1.41-.25.72-.44ZM48.8,92.59c3.78,0,7.55,0,11.33,0,2.39,0,3.22-.81,3.24-3.13.02-2.25.03-4.51,0-6.76-.1-6.89-5.27-13.16-11.68-14.19-7.71-1.25-14.45,2.7-16.83,9.83-1.21,3.62-.61,7.36-.71,11.05-.07,2.37.8,3.19,3.15,3.2,3.84.01,7.67,0,11.51,0ZM18.21,90.11c3.1,0,6.21-.08,9.31.03,1.44.05,1.83-.36,1.81-1.8-.04-3.87-.46-7.81.91-11.56.39-1.07.18-1.84-.34-2.71-2.71-4.51-8.14-6.75-13.39-5.5-5.02,1.19-8.87,5.77-9.09,11.01-.13,3.1,0,6.21-.1,9.3-.03,1.14.45,1.26,1.39,1.24,3.16-.05,6.33-.02,9.49-.02ZM79.21,90.11c3.22,0,6.45-.03,9.67.02.88.01,1.31-.12,1.28-1.16-.08-3.1.04-6.21-.09-9.3-.2-5.16-3.64-9.42-8.67-10.95-4.74-1.44-9.93.3-13.02,4.26-1.17,1.5-1.73,2.93-.89,4.81.41.91.55,2,.59,3.02.11,2.61.16,5.23.09,7.84-.04,1.25.39,1.53,1.55,1.5,3.16-.07,6.32-.03,9.49-.03ZM48.85,60.84c5.39-.04,9.79-4.5,9.66-9.81-.12-5.39-4.53-9.68-9.88-9.63-5.27.05-9.61,4.4-9.67,9.66-.06,5.42,4.39,9.82,9.89,9.78ZM19.46,60.84c4.08.02,7.32-3.18,7.35-7.23.02-3.99-3.29-7.35-7.27-7.37-3.97-.02-7.32,3.3-7.34,7.3-.03,4.05,3.19,7.28,7.27,7.3ZM78,60.84c4.08,0,7.31-3.22,7.3-7.27,0-3.98-3.36-7.35-7.31-7.33-3.99.02-7.3,3.35-7.3,7.34,0,4.05,3.23,7.26,7.31,7.26Z"/>
      <path class="cls-1" d="M16.53,4.84c3.17,0,6.33-.02,9.5.01.81,0,1.27-.19,1.69-.98C29.1,1.3,31.31,0,34.26,0,43.88,0,53.5,0,63.13,0c3.01,0,5.31,1.26,6.67,3.94.49.97,1.15.89,1.93.89,5.91,0,11.81,0,17.72,0,5.03,0,7.97,2.88,8,7.87.03,4.51.03,9.01,0,13.52-.04,4.99-2.98,7.85-8.01,7.87-.43,0-.86.04-1.28,0-2.73-.32-4.96.25-6.91,2.5-1.8,2.07-4.8,2-6.63-.11-1.8-2.08-3.82-2.65-6.4-2.43-1.8.16-3.63.2-5.37-.62-1.31-.62-2.36-1.49-3.14-2.69-1.19-1.81-4.43-2.15-6.01-.62-.44.42-.85.87-1.29,1.29-2.35,2.26-5.03,2.22-7.42-.05-1.01-.96-1.73-2.26-3.55-2.17-1.75.09-3.11.09-4.12,2.02-1.02,1.95-3.17,2.74-5.42,2.86-.79.04-1.59.09-2.37,0-2.68-.32-4.84.26-6.74,2.47-1.82,2.1-4.82,2.09-6.62-.02-1.85-2.18-3.96-2.72-6.57-2.44-.78.08-1.58.03-2.37,0-4.02-.13-7.07-3.02-7.15-7.03-.11-5.05-.11-10.11,0-15.16.09-4.1,3.16-6.99,7.31-7.05,3.04-.05,6.09,0,9.13,0ZM48.79,4.84c-4.69,0-9.37-.01-14.06,0-2.15,0-3.06.84-3.08,2.94-.05,4.5-.04,9.01,0,13.51.02,2.16.86,2.96,3,2.99,2.19.03,4.4.16,6.57-.03,2.6-.23,4.68.48,6.18,2.63,1,1.42,1.86,1.16,2.75-.07,1.5-2.06,3.5-2.77,6.03-2.55,2.18.18,4.38.06,6.57.03,2.26-.03,3.08-.82,3.1-3.08.03-4.38.03-8.76,0-13.14-.01-2.42-.87-3.21-3.36-3.22-4.56,0-9.13,0-13.69,0ZM31.63,29.25c-4.04-2.09-5.08-5.49-4.86-9.66.16-2.91,0-5.84.05-8.77.01-.83-.18-1.18-1.1-1.17-6.03.04-12.06-.01-18.09.04-1.9.02-2.74.96-2.75,2.89-.03,4.57-.03,9.13,0,13.7.01,2.02.86,2.88,2.89,2.95,1.4.05,2.82.15,4.2-.02,2.66-.33,4.78.46,6.32,2.67.87,1.25,1.69,1.06,2.47-.05,1.56-2.23,3.7-2.91,6.34-2.62,1.49.17,3.02.03,4.54.03ZM65.84,29.25c.95,0,1.91.07,2.86-.01,3.4-.31,6.56-.04,8.66,3.19.51.79,1.03.43,1.41-.13,1.95-2.89,4.78-3.43,7.98-3.07.9.1,1.83.03,2.74.01,2.26-.06,3.12-.88,3.13-3.09.02-4.45.02-8.89,0-13.34,0-2.25-.84-3.13-3.07-3.14-5.85-.03-11.69.03-17.54-.04-1.24-.02-1.36.48-1.34,1.5.05,2.98-.09,5.97.05,8.95.19,4.04-1.07,7.15-4.88,9.17Z"/>
    </g>
  </g>
</svg>