<?xml version="1.0" encoding="UTF-8"?>
<svg id="Capa_2" data-name="Capa 2" xmlns="http://www.w3.org/2000/svg" viewBox="0 0 89.57 89.31">
  <defs>
    <style>
      .cls-1 {
        fill: #444;
        stroke-width: 0px;
      }
    </style>
  </defs>
  <g id="Capa_1-2" data-name="Capa 1">
    <g>
      <path class="cls-1" d="M28.6,69.67c1.07,1.11,1.79.89,2.7-.11,1.92-2.1,4.33-3.55,7.17-4.63-2.05-1.66-3.76-3.52-4.23-6.1-.84-4.56-1.15-9.09,1.92-13.09,2.76-3.6,7.73-5.17,11.98-3.83,4.57,1.45,7.71,5.42,7.9,10.1.06,1.64.06,3.3-.09,4.93-.31,3.21-1.76,5.85-4.58,7.9,3.13,1.32,5.82,2.98,7.96,5.46.62.72,1.18-.26,2.01-.49-4.24-3.46-4.13-8.04-3.46-12.6.71-4.83,5.07-8.07,9.91-7.78,4.73.29,8.6,4.02,8.92,8.79.17,2.48.25,4.99-.61,7.4-.58,1.64-1.63,2.93-3.1,4.16,3.51,1.61,6.01,4.04,7.51,7.43.97,2.19,1.57,4.51,1.91,6.87.23,1.57.78,2.33,2.49,2.04.93-.16,1.91-.04,2.86-.02,1.07.03,1.74.57,1.71,1.66-.03,1-.71,1.49-1.7,1.52-.37.01-.74,0-1.12,0-27.84,0-55.68,0-83.52,0-1.25,0-2.87.28-2.86-1.6,0-1.88,1.63-1.56,2.87-1.59,1.22-.03,2.74.35,3.55-.24.7-.51.61-2.13.85-3.26,1.02-4.61,2.67-8.85,6.89-11.54.66-.42,1.36-.8,2.14-1.25-4.48-4.08-4.36-9.17-2.88-14.25,1.24-4.23,5.82-6.69,10.06-6.06,4.63.7,8.03,4.31,8.3,8.9.08,1.43.06,2.87-.02,4.3-.15,2.77-1.19,5.14-3.44,6.97ZM62.03,86.08c-.52-2.35-.98-4.58-1.52-6.79-1.68-6.85-7.41-11.67-14.52-12.27-6.62-.55-13.07,3.3-15.86,9.53-1.34,3.01-1.77,6.26-2.44,9.55,1.32,0,2.54-.06,3.75.02.79.05.98-.3,1.1-.96.32-1.77.73-3.52,1.05-5.29.21-1.15.75-1.95,2.01-1.7,1.27.26,1.42,1.25,1.18,2.37-.39,1.81-.75,3.62-1.15,5.56,5.94,0,11.83-.01,17.71.01.85,0,.77-.36.61-.98-.43-1.64-.81-3.29-1.16-4.94-.2-.96.15-1.72,1.15-1.95.99-.23,1.63.28,1.9,1.23.26.91.44,1.85.71,2.76.38,1.28.09,3.12,1.21,3.72,1.08.57,2.69.12,4.26.12ZM52.81,54.5c0-.78.02-1.42,0-2.06-.15-4.16-3.3-7.47-7.39-7.77-4.03-.3-7.62,2.42-8.36,6.48-.38,2.09-.39,4.23.04,6.33,1.13,5.43,7.25,8.02,11.94,5.08,3.04-1.9,3.99-4.79,3.77-8.06ZM28.89,60.7c0-.64.03-1.28,0-1.91-.16-3.32-2.68-5.92-5.95-6.15-3.24-.22-6.16,2.04-6.68,5.32-.28,1.73-.26,3.51,0,5.24.42,2.87,2.69,4.97,5.54,5.33,2.71.35,5.38-1.2,6.56-3.78.6-1.3.57-2.67.54-4.05ZM60.79,60.33c0,.86-.02,1.45,0,2.03.14,3.38,2.74,6.03,6.06,6.2,3.25.16,6.16-2.15,6.58-5.43.21-1.67.2-3.41,0-5.08-.3-2.46-1.79-4.19-4.1-5.03-2.31-.84-4.51-.4-6.39,1.23-1.95,1.69-2.34,3.94-2.15,6.09ZM73.05,86.11c-.34-1.5-.66-2.88-.96-4.26-.22-.99.17-1.7,1.13-1.96.98-.27,1.64.22,1.93,1.17.24.81.43,1.63.63,2.45q.66,2.7,3.46,2.59c.09,0,.18-.08.26-.12-.31-1.56-.62-3.11-.91-4.66-1.21-6.43-7.78-10.72-14.08-9.14-.96.24-2.2.36-2.69,1.18-.45.75.69,1.52.86,2.38.01.05.02.1.04.15,1.13,2.82,1.58,5.8,2.23,8.74.13.6-.06,1.55,1.13,1.52,2.27-.06,4.55-.02,6.96-.02ZM10.15,86.05c.43.02.85,0,1.25.07,1.51.29,2.23-.32,2.37-1.85.09-.94.43-1.85.64-2.78.26-1.18.83-2.06,2.17-1.69,1.24.34,1.33,1.33,1.02,2.44-.29,1.02-.51,2.05-.79,3.07-.17.62,0,.83.67.82,1.75-.04,3.52-.14,5.25.03,1.49.14,1.84-.54,2.08-1.79.63-3.32,1.09-6.72,2.74-9.73.69-1.26.19-1.58-.84-1.97-6.7-2.55-14.17,1.51-15.6,8.5-.33,1.6-.63,3.21-.96,4.89Z"/>
      <path class="cls-1" d="M44.86,0c10.84,0,21.68,0,32.52,0,7.49,0,12.15,4.61,12.1,12.09-.02,3.55.36,7.13-.23,10.66-.86,5.18-5.25,8.95-10.53,9.13-1.54.05-3.09.08-4.62,0-.89-.05-1.32.27-1.69,1.04-1.14,2.39-2.36,4.74-3.53,7.11-.37.75-.78,1.43-1.73,1.42-.94,0-1.35-.7-1.71-1.44-1.14-2.33-2.31-4.64-3.44-6.98-.38-.78-.81-1.18-1.79-1.15-3.35.08-6.7.07-10.04,0-.89-.02-1.34.27-1.69,1.04-.63,1.4-1.36,2.75-2.04,4.13-.32.66-.76,1.18-1.54,1.21-.86.03-1.33-.51-1.68-1.23-.58-1.19-1.31-2.32-1.75-3.56-.48-1.35-1.28-1.64-2.62-1.6-3.13.11-6.27.07-9.4,0-.88-.02-1.32.26-1.69,1.03-1.14,2.39-2.35,4.74-3.52,7.11-.37.74-.78,1.43-1.73,1.42-.94,0-1.35-.7-1.71-1.44-1.03-2.09-2.19-4.12-3.08-6.27-.63-1.52-1.52-1.97-3.11-1.87-2.16.13-4.37.26-6.48-.45C3.73,29.93.9,26.89.37,22.26c-.48-4.16-.5-8.41,0-12.57C1.07,3.82,5.72.02,11.7.01c11.05-.02,22.1,0,33.16,0ZM67.17,36.26c1.09-2.19,2.06-4.08,2.97-5.99.54-1.12,1.29-1.67,2.62-1.59,1.85.11,3.72.06,5.58.02,4.46-.09,7.86-3.43,7.95-7.87.06-3.24.06-6.48,0-9.72-.08-4.45-3.46-7.89-7.9-7.9-22.37-.04-44.73-.04-67.1,0-4.44,0-7.81,3.47-7.88,7.92-.05,3.19-.05,6.38,0,9.56.06,4.54,3.45,7.91,7.98,8,1.75.03,3.52.12,5.26-.03,1.6-.13,2.44.52,3.06,1.91.83,1.85,1.81,3.64,2.83,5.64,1.12-2.21,2.13-4.17,3.11-6.15.47-.95,1.12-1.4,2.25-1.38,4.2.05,8.39.06,12.59,0,1.56-.03,2.65.35,3.15,1.97.24.77.75,1.46,1.23,2.37.41-.79.81-1.36,1.01-1.99.6-1.84,1.78-2.44,3.71-2.37,3.98.14,7.97.12,11.95.01,1.41-.04,2.15.53,2.71,1.69.91,1.89,1.87,3.76,2.94,5.89Z"/>
      <path class="cls-1" d="M22.34,7.61c1.03-.08,1.51.59,1.78,1.35.74,2.1,2.21,2.96,4.38,3.17,2.08.2,2.58,1.74,1.01,3.18-1.67,1.53-2.23,3.12-1.66,5.32.4,1.53-.75,2.41-2.29,1.98-.2-.06-.41-.14-.58-.25-1.71-1.1-3.32-1.03-5.15-.05-2.18,1.17-3.33.3-2.87-2.12.38-1.96.02-3.47-1.56-4.74-.62-.5-1.3-1.16-.89-2.18.38-.95,1.22-1.18,2.06-1.2,2.14-.04,3.37-1.15,4.1-3.06.28-.75.73-1.45,1.68-1.4ZM20.59,18.4c1.28-.95,2.51-.42,3.9.07-.53-1.57-.01-2.67,1.13-3.84-1.85.21-2.61-.83-3.29-2.21-.54,1.51-1.5,2.27-3.14,2.32,1.02,1.06,1.79,2.06,1.4,3.66Z"/>
      <path class="cls-1" d="M61.48,22.44c.03-.26.04-.53.1-.79.47-1.73.15-3.16-1.31-4.35-.69-.56-1.56-1.24-1.13-2.4.4-1.11,1.43-1.24,2.36-1.27,1.89-.07,2.97-1.04,3.65-2.71.33-.82.71-1.68,1.85-1.72,1.16-.04,1.61.81,1.9,1.63.7,1.95,2.09,2.76,4.07,2.86.81.04,1.58.26,1.93,1.14.39.98-.15,1.7-.81,2.22-1.75,1.38-2.13,3.05-1.59,5.18.39,1.54-.73,2.42-2.27,2.01-.1-.03-.22-.05-.3-.1-1.96-1.36-3.88-1.27-5.85.03-.49.32-1.19.45-1.82.07-.7-.42-.83-1.05-.77-1.78ZM70.23,16.35c-1.7-.05-2.65-.85-3.29-2.55-.41,1.85-1.51,2.43-3.15,2.57,1.26,1.03,1.68,2.21,1.36,4,1.41-1.35,2.6-.87,3.95-.23-.4-1.55-.11-2.72,1.13-3.78Z"/>
      <path class="cls-1" d="M36.56,14.16c.06-1.85.91-3.27,2.53-4.13,1.61-.86,3.32-.84,4.82.23.73.52,1.15.49,1.9.03,2.02-1.26,4.56-.82,6.07.9,1.61,1.83,1.73,4.36.05,6.23-1.84,2.05-3.85,3.95-5.82,5.89-.83.81-1.7.74-2.52-.07-1.95-1.95-3.93-3.88-5.84-5.88-.83-.86-1.25-1.96-1.19-3.2ZM49.88,14.33c-.07-.64-.41-1.16-1.05-1.43-.89-.38-1.5.12-2.11.68-1.71,1.6-2.05,1.61-3.78.02-.81-.74-1.66-1.3-2.61-.33-.95.96-.44,1.81.37,2.59,1.37,1.32,2.72,2.65,4.08,3.98,1.68-1.13,2.88-2.76,4.36-4.11.4-.36.71-.79.73-1.41Z"/>
    </g>
  </g>
</svg>