<?xml version="1.0" encoding="UTF-8"?>
<svg id="Capa_2" data-name="Capa 2" xmlns="http://www.w3.org/2000/svg" viewBox="0 0 84.97 73.18">
  <defs>
    <style>
      .cls-1 {
        fill: #444;
        stroke-width: 0px;
      }
    </style>
  </defs>
  <g id="Capa_1-2" data-name="Capa 1">
    <g>
      <path class="cls-1" d="M.05,50.05c0-1.83,0-3.66,0-5.49,0-.96.21-1.9,1.23-2.24,3.75-1.23,5.48-6.38,4.07-10.66-.67-2.04-1.89-3.66-4-4.44-.81-.3-1.27-.97-1.26-1.77,0-2.88-.27-5.78.14-8.65.38-2.68,2.06-4.29,4.59-4.96.8-.21,1.07-.58,1.28-1.26.65-2.11,1.33-4.2,2.04-6.29C9.34.73,12.48-.81,16.04.42c10.28,3.56,20.55,7.14,30.82,10.71,1.05.36,2.1.57,3.23.56,9.29-.03,18.59.09,27.88-.07,4.27-.07,7.09,2.88,6.94,7-.07,2.07-.02,4.14-.01,6.21,0,1.23-.48,1.98-1.66,2.56-3.03,1.47-4.11,4.17-4.1,7.36.01,3.18,1.05,5.87,4.11,7.34.85.41,1.59.91,1.59,1.85.03,4.18.31,8.38-.13,12.55-.28,2.66-1.95,4.32-4.54,4.96-.8.2-1.17.58-1.4,1.38-.58,2.03-1.27,4.02-1.95,6.02-1.2,3.53-4.29,5.11-7.76,3.93-10.39-3.53-20.77-7.08-31.15-10.64-.79-.27-1.56-.41-2.39-.41-9.54.01-19.07.01-28.61,0-4.28,0-6.84-2.53-6.87-6.79-.01-1.64,0-3.27,0-4.91ZM50.29,57.93c9.2,0,18.4,0,27.59,0,2.38,0,3.1-.72,3.1-3.09,0-2.84-.03-5.68.02-8.52.01-.81-.26-1.26-.92-1.73-5.82-4.14-6.7-13.52-1.39-18.36,1.98-1.81,2.57-3.51,2.31-5.89-.06-.52,0-1.06,0-1.59,0-2.7-.53-3.23-3.19-3.23-18.15,0-36.31,0-54.46-.02-1.32,0-2.27-.05-2.08,1.78.12,1.09-.65,1.94-1.86,1.95-1.29.01-1.85-.84-1.99-2.03-.03-.24-.04-.48,0-.72.1-.73-.16-.99-.94-.97-3.32.05-6.65,0-9.97.03-1.74.01-2.47.72-2.5,2.45-.04,1.83.02,3.66-.03,5.49-.02.67.26,1,.79,1.37,6.64,4.66,6.67,15.12.05,19.81-.63.45-.85.88-.84,1.63.04,2.94,0,5.87.02,8.81.01,2.08.78,2.84,2.91,2.85,3.03.02,6.07-.05,9.1.03,1.12.03,1.49-.25,1.44-1.41-.08-1.7.73-2.64,1.99-2.6,1.2.04,1.98.94,1.87,2.57-.09,1.31.45,1.44,1.56,1.44,9.15-.04,18.3-.02,27.45-.02ZM35.93,11.64c.03-.07.07-.14.1-.2-3.11-1.07-6.21-2.14-9.32-3.22-3.94-1.37-7.87-2.74-11.81-4.11-1.14-.39-2.31-.51-2.83.82-.85,2.17-1.51,4.42-2.28,6.72h26.14ZM49.46,61.75c-.02.08-.04.16-.05.25,1.52.52,3.04,1.03,4.55,1.55,5.35,1.83,10.69,3.67,16.04,5.49,1.83.62,2.53.26,3.16-1.55.53-1.54,1.01-3.1,1.58-4.62.33-.88.19-1.14-.8-1.13-4.86.05-9.72.02-14.58.02-3.3,0-6.6,0-9.89,0Z"/>
      <path class="cls-1" d="M59.12,25.62c.87,0,1.47.24,1.86.87.42.68.4,1.38-.02,2.04-.18.28-.42.52-.66.76-5.85,5.85-11.71,11.71-17.56,17.56-.59.59-1.21,1.13-2.14.88-1.62-.43-1.99-2.18-.7-3.49,2.81-2.84,5.65-5.65,8.47-8.47,3.06-3.06,6.13-6.12,9.19-9.19.48-.48.94-.99,1.55-.96Z"/>
      <path class="cls-1" d="M59.4,39.61c3.44.02,6.23,2.84,6.21,6.27-.02,3.39-2.93,6.3-6.27,6.27-3.4-.03-6.19-2.88-6.18-6.33,0-3.47,2.79-6.24,6.24-6.21ZM61.77,45.85c0-1.3-1.03-2.32-2.38-2.34-1.38-.01-2.39.94-2.43,2.27-.04,1.36,1.06,2.46,2.43,2.44,1.31-.02,2.37-1.08,2.38-2.37Z"/>
      <path class="cls-1" d="M40.94,33.73c-3.4-.03-6.27-2.93-6.22-6.29.06-3.42,2.9-6.18,6.35-6.16,3.45.02,6.24,2.86,6.18,6.28-.06,3.46-2.85,6.19-6.31,6.17ZM40.95,25.11c-1.34.04-2.32,1.09-2.29,2.46.03,1.34,1.11,2.4,2.41,2.36,1.32-.04,2.31-1.12,2.29-2.47-.02-1.35-1.08-2.38-2.4-2.34Z"/>
      <path class="cls-1" d="M21.35,26.08c-.04.81-.01,1.63-.14,2.43-.16,1.03-.85,1.61-1.9,1.6-.98-.01-1.66-.56-1.8-1.53-.25-1.61-.22-3.25-.02-4.86.12-1.01.83-1.61,1.9-1.59,1.07.02,1.7.66,1.85,1.66.11.75.02,1.53.02,2.29.03,0,.06,0,.09,0Z"/>
      <path class="cls-1" d="M17.35,36.58c.04-.81,0-1.64.15-2.44.16-.95.81-1.55,1.79-1.58,1.05-.03,1.77.57,1.92,1.58.23,1.61.22,3.26,0,4.87-.13.96-.83,1.55-1.78,1.58-1.03.03-1.74-.57-1.92-1.59-.14-.8-.1-1.62-.15-2.44Z"/>
      <path class="cls-1" d="M17.44,47.05c0-.77-.09-1.54.02-2.29.16-1.07.83-1.74,1.96-1.7,1.06.03,1.74.7,1.81,1.7.11,1.52.12,3.07,0,4.59-.08,1.07-.82,1.73-1.95,1.7-1.07-.03-1.68-.7-1.82-1.7-.11-.75-.02-1.53-.02-2.29Z"/>
    </g>
  </g>
</svg>