<?xml version="1.0" encoding="UTF-8"?>
<svg id="Capa_2" data-name="Capa 2" xmlns="http://www.w3.org/2000/svg" viewBox="0 0 50.71 50.71">
  <defs>
    <style>
      .cls-1 {
        fill: #fa0f00;
      }

      .cls-1, .cls-2 {
        stroke-width: 0px;
      }

      .cls-2 {
        fill: #fff;
      }
    </style>
  </defs>
  <g id="Layer_1" data-name="Layer 1">
    <g id="Document_Cloud" data-name="Document Cloud">
      <path id="_21" data-name=" 21" class="cls-1" d="M0,7.92C0,3.55,3.55,0,7.92,0h34.86c4.38,0,7.92,3.55,7.92,7.92v34.86c0,4.38-3.55,7.92-7.92,7.92H7.92c-4.38,0-7.92-3.55-7.92-7.92V7.92Z"/>
      <rect id="_11" data-name=" 11" class="cls-1" width="50.71" height="50.71" rx="7.92" ry="7.92"/>
      <path id="_22" data-name=" 22" class="cls-2" d="M41.38,30.08c-2.5-2.6-9.33-1.54-10.97-1.35-1.8-1.81-3.35-3.85-4.62-6.06.9-2.57,1.42-5.26,1.54-7.98,0-2.41-.96-5-3.66-5-.95.03-1.82.54-2.31,1.35-1.15,2.02-.67,6.06,1.15,10.2-1.25,3.78-2.83,7.45-4.71,10.97-2.79,1.15-8.66,3.85-9.14,6.74-.18.88.11,1.79.77,2.41.67.57,1.53.87,2.4.87,3.56,0,7.02-4.91,9.43-9.04,2.74-.93,5.53-1.67,8.37-2.21,3.75,3.27,7.02,3.75,8.76,3.75,2.31,0,3.17-.96,3.46-1.83.43-.94.24-2.05-.48-2.79ZM38.98,31.72c-.1.67-.96,1.35-2.5.96-1.79-.48-3.47-1.33-4.91-2.5,1.25-.19,4.04-.48,6.06-.1.77.19,1.54.67,1.35,1.64ZM22.91,11.9c.16-.28.45-.46.77-.48.87,0,1.06,1.06,1.06,1.92-.1,2.03-.48,4.04-1.15,5.96-1.44-3.85-1.15-6.54-.67-7.41ZM22.72,30.57c.83-1.75,1.57-3.55,2.21-5.39.89,1.42,1.92,2.74,3.08,3.94,0,.1-2.98.67-5.29,1.44h0ZM17.04,34.41c-2.21,3.66-4.52,5.97-5.77,5.97-.2-.02-.4-.09-.58-.19-.29-.19-.41-.55-.29-.87.29-1.35,2.79-3.17,6.64-4.91Z"/>
    </g>
  </g>
</svg>