<?xml version="1.0" encoding="UTF-8"?>
<svg id="Capa_2" data-name="Capa 2" xmlns="http://www.w3.org/2000/svg" viewBox="0 0 50.71 50.71">
  <defs>
    <style>
      .cls-1 {
        fill: #99f;
      }

      .cls-1, .cls-2 {
        stroke-width: 0px;
      }

      .cls-2 {
        fill: #00005b;
      }
    </style>
  </defs>
  <g id="Layer_1" data-name="Layer 1">
    <g id="After_Effects" data-name="After Effects">
      <rect id="_3" data-name=" 3" class="cls-2" width="50.71" height="50.71" rx="7.92" ry="7.92"/>
      <path id="_4" data-name=" 4" class="cls-1" d="m20.83,30.96h-7.74l-1.57,5.1c-.05.18-.21.31-.4.3h-3.92c-.22,0-.3-.12-.23-.37l6.7-19.03c.07-.2.13-.43.2-.69.09-.45.13-.9.13-1.36-.02-.11.06-.22.18-.23.02,0,.04,0,.06,0h5.33c.16,0,.25.06.27.17l7.61,21.17c.07.22,0,.34-.2.34h-4.36c-.15.02-.3-.08-.34-.23l-1.71-5.17Zm-6.53-3.57h5.29c-.13-.45-.29-1.36-.47-1.92-.18-.56-.37-1.16-.57-1.79-.2-.64-.4-1.27-.6-1.91-.2-.64-.39-1.25-.55-1.84-.17-.59-.32-1.13-.45-1.62h-.03c-.19.9-.42,1.8-.7,2.68-.31,1.01-.63,2.03-.96,3.08-.32,1.05-.64,2.44-.95,3.33Z"/>
      <path id="_5" data-name=" 5" class="cls-1" d="m39.71,29.13h-6.6c.1.68.33,1.33.68,1.92.37.56.9,1,1.52,1.26.85.38,1.78.58,2.72.58.63.02,1.25-.03,1.87-.15.67-.12,1.33-.32,1.96-.59.11-.09.17-.03.17.17v3.18c0,.09-.01.17-.05.25-.04.06-.09.11-.15.15-.69.33-1.43.57-2.18.72-.9.13-1.81.16-2.71.11-1.37.04-2.73-.21-3.99-.74-1.01-.45-1.91-1.12-2.61-1.98-.66-.8-1.15-1.73-1.44-2.73-.29-.98-.44-2.01-.44-3.03,0-1.12.17-2.23.52-3.3.33-1.04.86-2.01,1.56-2.85.69-.83,1.54-1.51,2.52-1.98,1.09-.5,2.28-.75,3.49-.72,1.17-.02,2.33.21,3.41.67.86.39,1.61.98,2.19,1.73.55.71.97,1.51,1.24,2.36.26.82.4,1.68.4,2.55,0,.49-.02.94-.05,1.34-.03.24-.07.48-.13.71-.02.15-.15.27-.3.27-.13,0-.36.02-.69.05s-.9.02-1.38.03c-.48.01-.99.02-1.52.02Zm-6.62-2.66h4.39c.54,0,.93,0,1.19-.02.16,0,.33-.02.49-.05v-.2c.02-.4,0-.8-.07-1.2-.37-1.17-1.48-1.96-2.71-1.91-1.15-.07-2.24.55-2.76,1.57-.25.57-.42,1.18-.51,1.8Z"/>
    </g>
  </g>
</svg>