<?xml version="1.0" encoding="UTF-8"?>
<svg id="Capa_2" data-name="Capa 2" xmlns="http://www.w3.org/2000/svg" viewBox="0 0 50.71 50.71">
  <defs>
    <style>
      .cls-1 {
        fill-rule: evenodd;
      }

      .cls-1, .cls-2 {
        fill: #99f;
      }

      .cls-1, .cls-2, .cls-3 {
        stroke-width: 0px;
      }

      .cls-3 {
        fill: #00005b;
      }
    </style>
  </defs>
  <g id="Layer_1" data-name="Layer 1">
    <g id="Audition">
      <rect id="_5" data-name=" 5" class="cls-3" width="50.71" height="50.71" rx="7.92" ry="7.92"/>
      <path id="_8" data-name=" 8" class="cls-1" d="m26.56,35.7l-6.81-20.38c-.02-.11-.09-.2-.17-.26-.09-.06-.2-.09-.31-.09h-4.42c-.24-.01-.44.17-.46.4,0,.02,0,.03,0,.05,0,.56-.07,1.11-.24,1.65h0s-6.1,18.61-6.1,18.61h0c-.06.16-.04.33.04.47.1.13.27.2.43.19h3.16c.14,0,.28-.04.39-.12.1-.09.17-.21.19-.34l1.67-5.35h6.33l1.78,5.45v.02c.06.1.14.19.24.25.1.06.21.09.33.09h3.54c.16,0,.31-.07.4-.21.06-.13.07-.29.01-.43Zm-7.18-8.71h-4.52c1.1-3.59,1.84-6.11,2.22-7.56.14.5.31,1.07.5,1.72.34,1.12.71,2.32,1.11,3.6.31,1.01.54,1.76.69,2.24Z"/>
      <path id="_9" data-name=" 9" class="cls-2" d="m38.7,35.97c-.06-.19-.11-.38-.14-.58-1.15.84-2.54,1.28-3.96,1.23-1.74,0-3.1-.49-4.01-1.53-.91-1.02-1.34-2.54-1.34-4.49v-9.66c-.02-.27.18-.5.45-.52.02,0,.05,0,.07,0h3.38c.14,0,.27.05.37.15.08.1.13.23.12.37v9.41c0,.98.2,1.67.55,2.1.41.47,1.02.71,1.64.66.89.03,1.76-.34,2.35-1v-11.17c-.02-.27.18-.5.45-.52.02,0,.05,0,.07,0h3.35c.13,0,.26.04.37.12.1.09.16.23.15.37v11.78c0,.97.05,2.01.15,3.11.04.15,0,.31-.11.42l-.03.03-.04.02c-.11.05-.22.07-.34.06h-2.93c-.12,0-.24-.03-.34-.09-.11-.06-.19-.16-.23-.28Z"/>
    </g>
  </g>
</svg>