<?xml version="1.0" encoding="UTF-8"?>
<svg id="Capa_2" data-name="Capa 2" xmlns="http://www.w3.org/2000/svg" viewBox="0 0 52.01 50.71">
  <defs>
    <style>
      .cls-1 {
        fill: #fa0f00;
      }

      .cls-1, .cls-2 {
        stroke-width: 0px;
      }

      .cls-2 {
        fill: #fff;
      }
    </style>
  </defs>
  <g id="Layer_1" data-name="Layer 1">
    <g>
      <rect class="cls-1" width="52.01" height="50.71" rx="9.21" ry="9.21"/>
      <path id="_256" data-name=" 256" class="cls-2" d="m40.44,38.13h-6.18c-.55.01-1.05-.31-1.27-.82l-6.71-15.68c-.05-.16-.21-.25-.37-.2-.1.03-.17.1-.2.2l-4.18,9.96c-.08.18,0,.39.19.46.04.02.09.03.14.03h4.59c.28,0,.54.17.65.43l2.01,4.48c.18.42-.02.91-.44,1.08-.1.04-.21.07-.32.07H11.65c-.42,0-.76-.35-.76-.77,0-.1.02-.2.06-.3l10.64-25.34c.22-.55.76-.91,1.35-.9h6.14c.59,0,1.13.35,1.35.9l10.71,25.34c.17.39-.01.84-.4,1-.09.04-.19.06-.29.06Z"/>
    </g>
  </g>
</svg>