<svg xmlns="http://www.w3.org/2000/svg" xmlns:xlink="http://www.w3.org/1999/xlink" version="1.1" width="96px" height="96px" style="shape-rendering:geometricPrecision; text-rendering:geometricPrecision; image-rendering:optimizeQuality; fill-rule:evenodd; clip-rule:evenodd">
<g><path style="opacity:0.991" fill="currentColor" d="M 11.5,11.5 C 22.1719,11.3335 32.8385,11.5002 43.5,12C 45.3333,12.5 46.5,13.6667 47,15.5C 47.4988,19.4862 47.6655,23.4862 47.5,27.5C 59.5046,27.3335 71.5046,27.5001 83.5,28C 84.4162,28.3742 85.2496,28.8742 86,29.5C 87.1391,38.0695 87.6391,46.7362 87.5,55.5C 87.6391,64.2638 87.1391,72.9305 86,81.5C 85.2496,82.1258 84.4162,82.6258 83.5,83C 59.5,83.6667 35.5,83.6667 11.5,83C 9.66667,82.5 8.5,81.3333 8,79.5C 7.33333,58.1667 7.33333,36.8333 8,15.5C 8.68972,13.6498 9.85639,12.3164 11.5,11.5 Z M 15.5,19.5 C 18.1667,19.5 20.8333,19.5 23.5,19.5C 23.5,22.1667 23.5,24.8333 23.5,27.5C 20.8333,27.5 18.1667,27.5 15.5,27.5C 15.5,24.8333 15.5,22.1667 15.5,19.5 Z M 31.5,19.5 C 34.1667,19.5 36.8333,19.5 39.5,19.5C 39.5,22.1667 39.5,24.8333 39.5,27.5C 36.8333,27.5 34.1667,27.5 31.5,27.5C 31.5,24.8333 31.5,22.1667 31.5,19.5 Z M 15.5,35.5 C 18.1667,35.5 20.8333,35.5 23.5,35.5C 23.5,38.1667 23.5,40.8333 23.5,43.5C 20.8333,43.5 18.1667,43.5 15.5,43.5C 15.5,40.8333 15.5,38.1667 15.5,35.5 Z M 31.5,35.5 C 34.1667,35.5 36.8333,35.5 39.5,35.5C 39.5,38.1667 39.5,40.8333 39.5,43.5C 36.8333,43.5 34.1667,43.5 31.5,43.5C 31.5,40.8333 31.5,38.1667 31.5,35.5 Z M 47.5,35.5 C 58.1667,35.5 68.8333,35.5 79.5,35.5C 79.5,48.8333 79.5,62.1667 79.5,75.5C 68.8333,75.5 58.1667,75.5 47.5,75.5C 47.5,72.8333 47.5,70.1667 47.5,67.5C 50.1667,67.5 52.8333,67.5 55.5,67.5C 55.5,64.8333 55.5,62.1667 55.5,59.5C 52.8333,59.5 50.1667,59.5 47.5,59.5C 47.5,56.8333 47.5,54.1667 47.5,51.5C 50.1667,51.5 52.8333,51.5 55.5,51.5C 55.5,48.8333 55.5,46.1667 55.5,43.5C 52.8333,43.5 50.1667,43.5 47.5,43.5C 47.5,40.8333 47.5,38.1667 47.5,35.5 Z M 15.5,51.5 C 18.1667,51.5 20.8333,51.5 23.5,51.5C 23.5,54.1667 23.5,56.8333 23.5,59.5C 20.8333,59.5 18.1667,59.5 15.5,59.5C 15.5,56.8333 15.5,54.1667 15.5,51.5 Z M 31.5,51.5 C 34.1667,51.5 36.8333,51.5 39.5,51.5C 39.5,54.1667 39.5,56.8333 39.5,59.5C 36.8333,59.5 34.1667,59.5 31.5,59.5C 31.5,56.8333 31.5,54.1667 31.5,51.5 Z M 15.5,67.5 C 18.1667,67.5 20.8333,67.5 23.5,67.5C 23.5,70.1667 23.5,72.8333 23.5,75.5C 20.8333,75.5 18.1667,75.5 15.5,75.5C 15.5,72.8333 15.5,70.1667 15.5,67.5 Z M 31.5,67.5 C 34.1667,67.5 36.8333,67.5 39.5,67.5C 39.5,70.1667 39.5,72.8333 39.5,75.5C 36.8333,75.5 34.1667,75.5 31.5,75.5C 31.5,72.8333 31.5,70.1667 31.5,67.5 Z"/></g>
<g><path style="opacity:1" fill="#000000" d="M 63.5,43.5 C 66.1667,43.5 68.8333,43.5 71.5,43.5C 71.5,46.1667 71.5,48.8333 71.5,51.5C 68.8333,51.5 66.1667,51.5 63.5,51.5C 63.5,48.8333 63.5,46.1667 63.5,43.5 Z"/></g>
<g><path style="opacity:1" fill="#000000" d="M 63.5,59.5 C 66.1667,59.5 68.8333,59.5 71.5,59.5C 71.5,62.1667 71.5,64.8333 71.5,67.5C 68.8333,67.5 66.1667,67.5 63.5,67.5C 63.5,64.8333 63.5,62.1667 63.5,59.5 Z"/></g>
</svg>