<?xml version="1.0" encoding="UTF-8"?>
<svg id="Capa_2" data-name="Capa 2" xmlns="http://www.w3.org/2000/svg" viewBox="0 0 52.01 50.71">
  <defs>
    <style>
      .cls-1 {
        fill: #300;
      }

      .cls-1, .cls-2 {
        stroke-width: 0px;
      }

      .cls-2 {
        fill: #ff9a00;
      }
    </style>
  </defs>
  <g id="Layer_1" data-name="Layer 1">
    <g>
      <path class="cls-1" d="m9.21,0h33.59c5.09,0,9.21,4.12,9.21,9.21v32.29c0,5.09-4.12,9.21-9.21,9.21H9.21c-5.09,0-9.21-4.12-9.21-9.21V9.21C0,4.12,4.12,0,9.21,0Z"/>
      <path class="cls-2" d="m25.14,30.34h-8.06l-1.65,5.09c-.04.2-.22.33-.41.3h-4.07c-.24,0-.3-.13-.24-.39l6.98-20.09c.07-.22.13-.46.22-.72.09-.46.13-.93.13-1.41-.02-.11.07-.22.17-.24h5.61c.17,0,.26.07.28.17l7.91,22.32c.07.24,0,.35-.22.35h-4.53c-.15.02-.3-.09-.35-.24l-1.78-5.16Zm-6.81-4.4h5.5c-.13-.46-.3-1-.5-1.56-.2-.59-.39-1.21-.59-1.86-.22-.67-.41-1.32-.63-1.99s-.41-1.3-.59-1.93c-.17-.61-.33-1.17-.48-1.69h-.04c-.2.93-.43,1.86-.74,2.8-.33,1.04-.65,2.12-1,3.21-.3,1.11-.63,2.12-.95,3.03h0Zm18.51-9.25c-.72.02-1.41-.26-1.93-.76-.5-.54-.76-1.26-.74-1.99-.02-.74.26-1.43.78-1.93s1.21-.76,1.93-.76c.85,0,1.5.26,1.97.76.48.52.74,1.21.72,1.93.02.74-.24,1.45-.76,1.99-.5.52-1.24.8-1.97.76h0Zm-2.43,18.81v-16.69c0-.22.09-.3.28-.3h4.29c.2,0,.28.11.28.3v16.69c0,.24-.09.35-.28.35h-4.25c-.22,0-.33-.13-.33-.35Z"/>
    </g>
  </g>
</svg>