<?xml version="1.0" encoding="UTF-8"?>
<svg id="Capa_2" data-name="Capa 2" xmlns="http://www.w3.org/2000/svg" viewBox="0 0 50.71 50.71">
  <defs>
    <style>
      .cls-1 {
        fill: #49021f;
      }

      .cls-1, .cls-2 {
        stroke-width: 0px;
      }

      .cls-2 {
        fill: #f36;
      }
    </style>
  </defs>
  <g id="Layer_1" data-name="Layer 1">
    <g id="InDesign">
      <rect id="_18" data-name=" 18" class="cls-1" width="50.71" height="50.71" rx="7.92" ry="7.92"/>
      <path id="_34" data-name=" 34" class="cls-2" d="m18.01,15v21c0,.22-.1.34-.3.34h-3.83c-.18,0-.27-.11-.27-.34V15c0-.18.1-.27.3-.27h3.83c.13-.02.25.07.27.2,0,.02,0,.04,0,.07h0Z"/>
      <path id="_35" data-name=" 35" class="cls-2" d="m30.46,36.79c-1.54.02-3.07-.3-4.47-.94-1.31-.6-2.4-1.59-3.13-2.83-.81-1.45-1.2-3.09-1.14-4.74-.01-1.54.38-3.05,1.14-4.39.78-1.36,1.93-2.48,3.32-3.22,1.62-.84,3.43-1.26,5.26-1.2.11,0,.26,0,.44.02.18.01.57.03.82.05v-6.34c0-.16.07-.23.2-.23h3.89c.1-.01.19.05.2.15,0,.02,0,.03,0,.05v19.54c0,.38.02.79.05,1.24.03.45.06.85.08,1.21,0,.14-.07.28-.2.34-1.04.45-2.12.79-3.23,1-1.06.2-2.14.3-3.22.3Zm2.22-4.15v-9.15c-.24-.05-.49-.08-.73-.1-.23-.02-.46-.03-.69-.03-.81,0-1.62.18-2.35.54-1.6.76-2.57,2.42-2.45,4.19-.02.73.1,1.46.35,2.14.2.55.52,1.06.94,1.47.4.38.88.67,1.41.84.56.18,1.14.27,1.73.27.31,0,.6-.01.87-.03.31-.02.62-.06.92-.13h0Z"/>
    </g>
  </g>
</svg>