<?xml version="1.0" encoding="UTF-8"?>
<svg id="Capa_2" data-name="Capa 2" xmlns="http://www.w3.org/2000/svg" viewBox="0 0 50.71 50.71">
  <defs>
    <style>
      .cls-1 {
        fill: #d9f5ff;
        fill-rule: evenodd;
      }

      .cls-1, .cls-2, .cls-3 {
        stroke-width: 0px;
      }

      .cls-2 {
        fill: #26c9ff;
      }

      .cls-3 {
        fill: #061e26;
      }
    </style>
  </defs>
  <g id="Layer_1" data-name="Layer 1">
    <g id="g8">
      <path id="path2" class="cls-2" d="m41.73,50.71H8.98c-4.97,0-8.98-4.12-8.98-9.21V9.21C0,4.12,4.01,0,8.98,0h32.75c4.97,0,8.98,4.12,8.98,9.21v32.29c0,5.09-4.01,9.21-8.98,9.21Z"/>
      <path id="path4" class="cls-3" d="m40.93,48.55H9.78c-4.23,0-7.67-3.53-7.67-7.87V10.03c0-4.33,3.44-7.87,7.67-7.87h31.12c4.25,0,7.67,3.53,7.67,7.87v30.62c.02,4.36-3.42,7.89-7.65,7.89h0Z"/>
      <path id="path6" class="cls-1" d="m12.47,12.7c0-.13.04-.24.21-.24,1.33-.07,3.23-.11,5.28-.11,5.71,0,8.2,3.21,8.2,7.33,0,5.37-3.85,7.67-8.49,7.67-.78,0-1.06-.04-1.61-.04v8.24c0,.17-.06.24-.23.24h-3.13c-.17,0-.23-.07-.23-.24V12.7Zm3.59,11.23c.46.04.85.04,1.67.04,2.41,0,4.71-.87,4.71-4.23,0-2.69-1.65-4.05-4.42-4.05-.82,0-1.61.04-1.97.07v8.17Zm18.43-2.51c-1.63,0-2.18.85-2.18,1.54,0,.76.38,1.3,2.56,2.45,3.23,1.6,4.25,3.14,4.25,5.42,0,3.38-2.51,5.2-5.92,5.2-1.8,0-3.4-.39-4.29-.91-.13-.07-.17-.17-.17-.35v-3.12c0-.22.11-.28.23-.17,1.29.87,2.87,1.26,4.23,1.26,1.63,0,2.3-.69,2.3-1.65,0-.76-.46-1.43-2.56-2.56-2.94-1.43-4.14-2.9-4.14-5.33,0-2.73,2.07-4.98,5.68-4.98,1.77,0,3.09.28,3.76.59.17.11.21.28.21.41v2.9c0,.17-.11.28-.3.22-.93-.56-2.35-.91-3.68-.91Z"/>
    </g>
  </g>
</svg>